<svg xmlns="http://www.w3.org/2000/svg" xmlns:xlink="http://www.w3.org/1999/xlink" width="1991" height="1378.63" viewBox="0 0 1991 1378.63">
  <defs>
    <style>
      .b8e34a71-9e06-42da-9e64-47bd88f3f669 {
        fill: #77428c;
      }

      .a5f1d4a4-69ed-48dc-b865-e088419804c0 {
        fill: url(#bcb60f08-4110-4a01-82c4-460f3ec60b19);
      }

      .e5b480b8-69ed-46b5-aaae-7b7b68fea1de {
        fill: url(#af4c421f-ab42-4c32-8ab7-abb68b09878c);
      }

      .ab3f940d-b3a7-48b1-a598-4b0be1561646 {
        fill: url(#a986b7a4-9513-4317-b297-c6e497daa0fd);
      }

      .bf5f1ef1-93e5-4644-acca-8bf49879e211 {
        fill: url(#af2d32c4-2620-42c4-b416-51f7c92cd17d);
      }

      .b21023c2-0aa7-411c-928d-656801ce6a58 {
        fill: url(#ad071a7e-81a1-49a3-8a9a-6ae4808c3dfa);
      }

      .a8524ead-da98-4e0c-974e-815421d02512 {
        fill: url(#a729ced8-5ff3-484d-a74e-160b09eaf952);
      }

      .ed892983-6dfd-455f-9b85-a867c9f49dd4 {
        fill: #e4ce0c;
      }

      .b9dc70bf-38e6-41f7-a3fe-f4cc13452d36 {
        fill: none;
      }

      .f0fc247f-8f9b-449c-b0f0-f0c3d73136d5 {
        fill: #d61027;
      }

      .f6eb69de-5514-4cc3-962e-f73028fdd561 {
        fill: #fff;
      }

      .a311875f-358e-4c36-b864-8606fc24bf8b {
        fill: #743d92;
      }
    </style>
    <linearGradient id="bcb60f08-4110-4a01-82c4-460f3ec60b19" x1="751.5" y1="1020.59" x2="862.58" y2="773.03" gradientTransform="matrix(1, 0, 0, -1, 0, 1396.3)" gradientUnits="userSpaceOnUse">
      <stop offset="0" stop-color="#e4ce0c"/>
      <stop offset="0.66" stop-color="#99b826"/>
      <stop offset="1" stop-color="#78af32"/>
    </linearGradient>
    <linearGradient id="af4c421f-ab42-4c32-8ab7-abb68b09878c" x1="918.16" y1="1095.38" x2="1029.24" y2="847.82" xlink:href="#bcb60f08-4110-4a01-82c4-460f3ec60b19"/>
    <linearGradient id="a986b7a4-9513-4317-b297-c6e497daa0fd" x1="458.11" y1="888.94" x2="569.19" y2="641.39" xlink:href="#bcb60f08-4110-4a01-82c4-460f3ec60b19"/>
    <linearGradient id="af2d32c4-2620-42c4-b416-51f7c92cd17d" x1="457.69" y1="599.51" x2="613.21" y2="247.22" gradientTransform="matrix(1, 0, 0, -1, 0, 1396.3)" gradientUnits="userSpaceOnUse">
      <stop offset="0" stop-color="#d61027"/>
      <stop offset="0.68" stop-color="#840f10"/>
      <stop offset="1" stop-color="#630e07"/>
    </linearGradient>
    <linearGradient id="ad071a7e-81a1-49a3-8a9a-6ae4808c3dfa" x1="803.13" y1="751.99" x2="958.64" y2="399.71" xlink:href="#af2d32c4-2620-42c4-b416-51f7c92cd17d"/>
    <linearGradient id="a729ced8-5ff3-484d-a74e-160b09eaf952" x1="1257.3" y1="952.49" x2="1412.81" y2="600.2" xlink:href="#af2d32c4-2620-42c4-b416-51f7c92cd17d"/>
  </defs>
  <g id="a764cb3a-0b54-4b3a-9f80-c4df75b70128" data-name="Layer 2">
    <g id="b2540891-3c6e-4af5-86de-744cc0e01485" data-name="Layer 1">
      <g id="e45c2015-b814-4f1d-a5b5-adbbe415b6da" data-name="e111d489-31a6-4302-a253-8b2f220d9887">
        <g id="ab07c2e1-6037-4997-beb9-3711871f2576" data-name="eb5c9a00-7215-4750-bcb5-23b23bc542c7">
          <g>
            <path class="b8e34a71-9e06-42da-9e64-47bd88f3f669" d="M157,1287l.71-.82c27.06-31,109.65-220.31,153.53-326.18L.09,1087.42,21.19,1059c.29-.38,29-38.87,55.57-69.45C152.4,902.67,342.09,666.26,412.22,569.1c40.9-56.62,51.64-71.38,57.85-77.27l4.2-6.3L702.83,378.16l15.39-48.28,286.68-144-19.67,59,304.6-137.58-49.5,95-.07.13c-1.26,2.22-29.32,52.57-68.8,179.9L1991,0,1876.53,130.22l-.25.24c-79.47,78.39-505.86,648.41-509.65,653.66l-5.56,7.83-8.71,4c-1.56.73-157.08,72.88-312.32,144.47-315,145.29-321.85,146.79-324.77,147.43s-5.72,1.17-8.49,1.57a58.15,58.15,0,0,1-8.58.61,116.12,116.12,0,0,1-16.76-1.57l-.72-.1c-1.44,1.4-2.91,2.81-4.41,4.18-24.77,22.9-55.33,42.48-96.14,61.61L107.31,1378.63Z"/>
            <rect x="1017.31" y="1214.1" width="102.83" height="55.05"/>
            <polygon points="922.02 1209.23 1700.11 1213.36 1687.92 1265.6 1052.64 1236 976.05 1274.98 919.5 1279.87 922.02 1209.23"/>
            <path d="M936,1289.77H919.5a9.83,9.83,0,0,1-9.84-9.84V1195a9.84,9.84,0,0,1,9.84-9.84h15.84q.85-.06,1.74-.06a27.93,27.93,0,0,1,20.35,8.86c.26.28.5.57.73.87a34.24,34.24,0,0,1,6.56,22.3v39.23a35.07,35.07,0,0,1-7.31,24,10.15,10.15,0,0,1-.74.86A29.13,29.13,0,0,1,936,1289.77Z"/>
            <path d="M959.78,1289.73a9.83,9.83,0,0,1-9.83-9.84v-84.72a9.83,9.83,0,0,1,9.83-9.84h32.53a9.84,9.84,0,0,1,9.84,9.84v11.4a9.85,9.85,0,0,1-9.84,9.84H980.5v5.15h9a9.84,9.84,0,0,1,9.83,9.84v11.39a9.83,9.83,0,0,1-9.83,9.84h-9v5.17h11.81a9.84,9.84,0,0,1,9.84,9.84v12.2a9.84,9.84,0,0,1-9.84,9.83Z"/>
            <path d="M1032.16,1289.73a9.84,9.84,0,0,1-8-4,9.81,9.81,0,0,1-7.94,4h-9.66a9.83,9.83,0,0,1-9.83-8.63L986,1196.38a9.84,9.84,0,0,1,8.49-11,10.19,10.19,0,0,1,1.35-.08h10.89a9.82,9.82,0,0,1,6.76,2.67,9.84,9.84,0,0,1,6.75-2.67h7.87a9.84,9.84,0,0,1,6.79,2.7,9.84,9.84,0,0,1,6.79-2.7h11a9.85,9.85,0,0,1,9.92,9.76,10.2,10.2,0,0,1-.09,1.35l-10.82,84.72a9.83,9.83,0,0,1-9.84,8.63Z"/>
            <path d="M1076.29,1234.3h-.74a24.31,24.31,0,0,1-23.61-24.76v-1.42a24.17,24.17,0,0,1,24.21-23.23h2a24.17,24.17,0,0,1,23.36,24.59v1.35a24.11,24.11,0,0,1-24.18,23.43h-1Zm.54-28.91a4.15,4.15,0,0,0-4.15,4.15v.55a3.74,3.74,0,0,0,3.75,3.61h.88a3.72,3.72,0,0,0,3.69-3.76v-.35a4.16,4.16,0,0,0-4.12-4.2h-.05Z"/>
            <path d="M1080.16,1234.45a9.82,9.82,0,0,0-6.88,0h-4.42a9.84,9.84,0,0,1-9.84-9.84v-20.46a9.85,9.85,0,0,1,9.84-9.84h7.66c16.24,0,18.06,11.48,18.23,15.13a12.2,12.2,0,0,1,0,1.71,14.6,14.6,0,0,1-2,6.88l1,1.64a9.84,9.84,0,0,1-8.53,14.82Z"/>
            <polygon points="1420.04 721.37 1200.54 894.62 1375.4 1005.63 1474.29 862.78 1420.04 721.37"/>
            <path class="b8e34a71-9e06-42da-9e64-47bd88f3f669" d="M314.18,957,4.74,1083.71,22.45,1060c.28-.38,28.94-38.79,55.52-69.33C153.8,903.48,343.6,667,413.53,570c41.2-57.06,51.72-71.5,57.78-77.18l4.05-6L704.15,379.32,719.55,331l282.59-142-19.6,58.77,303.71-137.18-47.36,90.88-.09.15c-.29.51-29.4,52.1-69.94,183.59L1949.11,21.14,1958.77,34,1875.32,129l-.2.21C1796.31,206.89,1369.06,777.8,1365.29,783l-5.31,7.49-8.3,3.93C1247.8,842.65,729,1083.18,714.9,1086.28c-2.7.61-5.54,1.13-8.36,1.54a57.16,57.16,0,0,1-8.37.59,113.71,113.71,0,0,1-16.57-1.55l-1.44-.21c-1.73,1.68-3.36,3.23-5,4.71-24.69,22.81-55.1,42.3-95.73,61.33L111,1375S270.67,1062.17,314.18,957Z"/>
            <path class="b8e34a71-9e06-42da-9e64-47bd88f3f669" d="M75.9,997a3.56,3.56,0,0,1,.16-.53c1.42-3.78,22.82-65.18,30.24-101.29,7.76-37.73,24.33-129.75,20.8-188.64s-7.08-128.71-31-186.18S44.27,439.26,19.21,428c-6.82-3.07-12.53-5.85-17.25-8.28a3.65,3.65,0,0,1,2.39-6.82c20.5,4,52.84,11.36,79.69,22.15,43,17.28,153.74,78.63,159.73,70.84s-3.52-21.16-26.09-35.62c-15.16-9.72-38.93-19.27-52.88-24.49a2,2,0,0,1,.81-3.77c14,.92,39.21,4.26,71.11,15.57,49.72,17.63,86,28.53,169.22,30.32,57.65,1.22,88.89-8.21,102.66-14.13a3.49,3.49,0,0,1,4.56,4.66L464.69,585.17a4,4,0,0,1-.39.67l-212,279.74L157.83,984.42a3.47,3.47,0,0,1-3,1.31L75.56,998.51Z"/>
            <path d="M243.12,802.82s18-20.8,21.15-51.16,8.1-89.52-32.47-144.21-49.72-68.05-64.53-81.1c-8.36-7.37-20.2-18.69-28.93-27.11a1.15,1.15,0,0,1,0-1.63,1.13,1.13,0,0,1,1.44-.12c26.31,19.2,84.94,61.8,106.8,76.1,28.53,18.7,70.52,43.75,124.82,45.84,9.16.35,19-.34,20.8-11.27s4.77-28.75-12.34-45.5c-32.46-31.73-48.65-31.73-67.7-44.78a239.64,239.64,0,0,1-22.87-17.53,1,1,0,0,1,0-1.39,1,1,0,0,1,1-.21c12.25,5.76,41.92,18.11,62.73,23.36,33.49,8.47,61.35,2.83,61.35,2.83s-12.7-1.91-41.25-7.06a236.2,236.2,0,0,1-25.58-6.28,1.08,1.08,0,0,1,.4-2.11c16.21,1.3,32.2,4.47,61.51,3.81,31.74-.7,79.34-19.75,79.34-19.75s20.1,19.75-3.53,57.13-21.15,42.56-93.79,138.72S252.27,865.58,252.27,865.58Z"/>
            <path d="M1155.61,400.52c43.92-146.53,75.76-202.41,76.07-203h0L1268,127.94,968.79,263.06,988,205.34h0L726.34,336.81h0L710.9,385.24h0l-230,108h0l-3.35,5c-5.27,4.51-16.85,20.47-57.38,76.56-70.3,97.4-261.89,336-336,421.19-26.68,30.66-55.09,68.87-55.09,68.87l300.23-123c-36.34,89-164.17,350.68-164.17,350.68l-34.82,64.2L576,1145.29c39.88-18.69,69.61-37.72,93.65-59.94,2.59-2.38,5.14-4.91,7.63-7.34,9.76,1.24,18.37,3.15,28.11,1.72,2.62-.38,5.23-.87,7.77-1.44,14-3.06,635.05-291.21,635.05-291.21h0l6.35-3h0l4.06-5.73c3.07-4.34,430.46-575.74,510.75-654.94h0l83.25-94.7Z"/>
            <path class="b8e34a71-9e06-42da-9e64-47bd88f3f669" d="M1122.26,443.28c54.32-195.78,94-265.63,94-265.63l-283,130.21,18.35-57.49L745.73,354l-15.62,48.86L496.82,512.31S300.94,805.24,116,1006.51L370.1,901.88s-119.9,303.93-182.54,404.73l377.58-177.24c33.56-15.74,62.75-33.07,86.92-55.4a205.27,205.27,0,0,0,16.37-16.87c.91.25,1.42.41,1.56.45a80.34,80.34,0,0,0,33.23,2c2-.3,4-.65,5.9-1.09,11.51-2.52,21-6.66,29.32-10.31l.28-.15,606-283.57s308.31-435.35,504.7-658.79Z"/>
            <path d="M1331.64,736.06l-599.95,280.7c-16.14,7.15-32.34,13.62-52.14,8.29l-1-.28a40.49,40.49,0,0,1-13.77-7.87,172.27,172.27,0,0,1-26,30.05c-21.65,20-48.54,36.19-80.84,51.34h0L247.36,1244c64.4-108.8,165.57-394.5,165.57-394.5h0l-205,85.69c80-84.34,307.94-412.93,307.94-412.93h0L752.76,411.11h0l15.74-49.19h0l145.61-73.35h0l-17.63,55.26h0l275.38-127.26s-32.08,77.13-82.45,260.3h0L1767.72,161.7S1660,262.44,1331.61,736.07"/>
            <g>
              <path class="a5f1d4a4-69ed-48dc-b865-e088419804c0" d="M825.59,570.62l-25.43,11.9c-12.91,6-13.09,2.63-8.15-13L833,441.13l57.62-26.89,15.17-47.68-57.62,27,16.81-52.83-73.31,36.9-15.83,49.71-22.47,10.56L738.14,485.5,760.59,475,722.49,594.6c-19.26,60.55-4.35,66.74,18.69,56.08L832,608.25l22.75-59.12C850.47,553.27,839.69,564.07,825.59,570.62Z"/>
              <path class="e5b480b8-69ed-46b5-aaae-7b7b68fea1de" d="M1083.84,283l-58.52,27.43c-10.75,5-19.48,20.09-26.79,34.1l-.62.3,5.9-24.38-74.82,35c.33,10.38.87,18.49-9.84,52.15l-42,131.54c-10.7,33.66-17.53,45.19-25.76,59.64l88.32-41.32c-.33-10.45-.92-18.53,9.84-52.21l38.16-119.65c4.75-15,9.46-21.65,18.37-25.79l26.33-12.27c8.92-4.18,10.34-.44,5.56,14.57L999.87,481.73c-10.74,33.63-17.56,45.2-25.81,59.65l88.28-41.27c-.32-10.43-.83-18.56,9.84-52.21L1103.83,349C1121.11,294.64,1117.89,267,1083.84,283Z"/>
              <path class="ab3f940d-b3a7-48b1-a598-4b0be1561646" d="M660.92,481.73,544.61,693.82l-.63.3,59.85-185.77-74.77,35L367.17,777.23c-12.62,18.7-36.63,51.51-59.46,76.74l68.43-32c1.05-5.8,4.55-13.2,8.54-20.74,4.62-8.85,15.89-26.36,24.39-38.72l93.07-131.67.59-.25L453,786l83.11-38.83,97.6-177.85.6-.26L601.36,674.4c-2.74,8.77-5.6,18.49-11.32,31.33-3.74,8.32-6.89,13.77-11,21.44l85.24-39.88c1.36-15.6,2-21.15,14-58.5l58.42-182.45Z"/>
            </g>
            <g>
              <path class="bf5f1ef1-93e5-4644-acca-8bf49879e211" d="M670.47,704.18,456.85,802.69c3.88,13.67-1,35.09-19.94,81.39L357.28,1088c-18.07,48.21-26.07,67.88-38.13,89.85L545.73,1072c62-29,97.93-60.35,112.15-107.15l48.37-158.18C740.61,705.45,732.45,675.23,670.47,704.18Zm-65,133.65L564.08,959.7c-11.31,33.45-16.43,41.72-34.66,50.18L471.49,1037l78.27-208.11,48.39-21.64C616.45,798.62,616.79,804.41,605.46,837.83Z"/>
              <path class="b21023c2-0aa7-411c-928d-656801ce6a58" d="M915.93,838.47,812.44,886.82c-17.32,8.07-20.66.51-12.79-25.44l10.82-33.9,180-84.13,35.26-110.82c24.07-75.45,21.19-102.92-27.13-80.3L835,628.68c-48.3,22.63-72.81,62.85-96.8,138.24L692.6,910.13c-24,75.43-21.16,102.91,27.13,80.31L933.92,890.25l35.64-90C948,821.47,936.42,828.85,915.93,838.47Zm-67.25-131c6.65-20.78,13-30.92,24.83-36.48l44.18-20.66c11.85-5.51,12.79,1.24,6.17,22l-15.68,49.25L833,756.73Z"/>
              <path class="a8524ead-da98-4e0c-974e-815421d02512" d="M1542,297.66c-1.51,8.54-6.84,19.6-12.91,31-7.06,13.11-24.34,39.54-37.39,58.05L1356.08,581.08l-1.14.51L1429,350.48,1280.33,420,1121.89,690.54l-1,.46,49-156.54c4-13,8.31-27.45,16.85-46.45,5.51-12.42,10.21-20.49,16.37-31.91l-126.65,59.2c-2.13,23.29-3,31.49-20.84,87.06L968.79,873.44l112.56-52.61,189.31-323,1.08-.5-89.2,276.2L1316.48,711l240.8-347.78c19.4-28.05,56.37-77.44,91.63-115.48Z"/>
            </g>
            <path class="ed892983-6dfd-455f-9b85-a867c9f49dd4" d="M667.83,664.39s-2,12.45-2.36,17.58l-.4,5.14L579,727.17s5-9.52,10-19.23c3.3-6.43,4.36-8.26,13.27-36.5,6.79-21.53,29.31-96.51,29.31-96.51L628,579.85l6.93-14.66s-29.67,116.29-32.82,125.57S591,716,591,716l72.14-30.42a23.42,23.42,0,0,1,.78-5.33C664.78,676.15,667.83,664.39,667.83,664.39Z"/>
            <path class="ed892983-6dfd-455f-9b85-a867c9f49dd4" d="M536.08,747.2,453,786l46.8-146.22,1.41-4.39-6.67,6.24,11.63-18.35s-25.22,94-29.68,110.06-13.93,42.38-13.93,42.38l74.63-30.5Z"/>
            <path class="ed892983-6dfd-455f-9b85-a867c9f49dd4" d="M383.54,803.43s-2.18,4.14-5,13.72a19.63,19.63,0,0,0-1,4.92L307.71,854c9-10.59,22.16-25.69,37.26-45.74,17.07-22.66,28.72-40.11,35.63-50.39,27.83-41.44,56.84-82.07,85.22-123.13,15.11-21.85,36.94-53.32,63.83-91.62l74.18-34.74-17.31,53.73,14-49.85-67.23,34.56L420.93,710.71c-14.49,22.56-30.64,46.1-48.61,70.26-16.43,22.1-32.78,42.56-48.77,61.46L374.6,821.1S377.29,806.52,383.54,803.43Z"/>
            <path class="b9dc70bf-38e6-41f7-a3fe-f4cc13452d36" d="M546.3,693.72s36.11-60.23,51.85-86.7,67.23-125.21,67.23-125.21l68.8-32.58L660.93,481.7,584.84,620.41c-17.05,31.08-40.33,74.84-40.33,74.84Z"/>
            <path class="ed892983-6dfd-455f-9b85-a867c9f49dd4" d="M846.41,570.52l8.24-21.42S842.85,560,839.4,562.39s-.52,1.1-14.56,8.13S798,583.8,795.4,584.5s-6.43,4-5.65-7.16c0,0-6.88,14.12,7.29,8.18s39-15.62,43.77-19.78a99.09,99.09,0,0,0,9.06-9.27l-5.12,18.35Z"/>
            <path class="ed892983-6dfd-455f-9b85-a867c9f49dd4" d="M832.3,607.1S777.7,628.75,756.41,638s-25,12.79-32.52,10.42-5.52-22.26,0-43.2,40-134.88,40-134.88L738.61,484l-.47,1.46L760.59,475s-34.54,98-40.44,122.78c-6.68,28-12.45,53.47,3.14,56.94,9.47,2.11,16.31-3.33,36.22-12.63l72.37-33.83Z"/>
            <path class="ed892983-6dfd-455f-9b85-a867c9f49dd4" d="M934.44,357s.2,12.63-6.7,34.56S878.66,551,873.53,562s-11.23,26.66-11.23,26.66L938.67,556s-.48-15.4,2.47-19.59a70,70,0,0,0-1.42,11c-.1,4.92,0,10.11,0,10.11L851.4,598.79s9.84-19.33,19.15-43.68c6.38-16.73,28.94-90,43.76-137.85,6.79-21.89,13.15-39.7,13.48-42.15,1.05-7.8.33-19.47.33-19.47l74.93-34.91-.22,3.62Z"/>
            <path class="ed892983-6dfd-455f-9b85-a867c9f49dd4" d="M1064.28,476.75a50.1,50.1,0,0,0-2,14.76l.06,8.61L974.1,541.38a236,236,0,0,0,11.35-21.29c3.94-9,21.39-60.12,35-102.89S1038,364,1039.27,358s2.69-14.67-4.72-11.31-18.13,8.34-18.13,8.34S1021,343.2,1036,342s5.13,23.11,1.77,34.76-36.21,115.34-40.21,126.59-9.72,25.87-9.72,25.87l72.61-30.81s.2-5.53.79-9.67A101.2,101.2,0,0,1,1064.28,476.75Z"/>
            <path class="f0fc247f-8f9b-449c-b0f0-f0c3d73136d5" d="M836.45,745.9l-4,12.71,80.74-32.9s11.63-36.21,15.31-60.3c3.75-24.48-1.9-25.11-17.28-17s-36.27,17.24-42.18,20.4-10.14,9.88-14.35,17.36-5.53,19.91-5.53,19.91,7.65-25.92,18.6-31.71c8.57-4.56,40.23-20.07,52.78-25.65a3.15,3.15,0,0,1,4.34,3.57l-16.67,69.25-72.42,33.5a.84.84,0,0,1-1.12-.4.89.89,0,0,1,0-.58Z"/>
            <path class="f0fc247f-8f9b-449c-b0f0-f0c3d73136d5" d="M958.72,827.64l11.53-29.12s-17.64,19.61-31.36,27.55-33.79,16.16-75.21,35.12-51.06,25.15-54.21,26.06-13.39,2.68-12.62-8l.77-10.71s-7.76,22.57,7.12,22c11.62-.43,48.85-18.25,61.49-24.22,33.08-15.63,69-32,75.57-36.87s21.42-18.7,21.42-18.7Z"/>
            <path class="f0fc247f-8f9b-449c-b0f0-f0c3d73136d5" d="M956.79,571.76s-53.5,21.5-89.52,37-73.59,29.75-100.93,82.64S705.28,869.58,696.6,897.33s-18.88,53.24-18.76,76.42,9.37,33.71,59.31,10.27,196.76-93.77,196.76-93.77l1.11-2.81s-1.27.46-20.66,8.64c-18.69,7.87-153,69.78-179.25,81.1s-51,23.7-48.88-6.88,11-49.51,18.69-73.47,13.66-41.61,31.79-98.38,24.94-88.91,39.69-113.37,47.68-52.94,92.9-71.38S956.79,571.76,956.79,571.76Z"/>
            <path class="f0fc247f-8f9b-449c-b0f0-f0c3d73136d5" d="M1348.27,597.74s34.7-49.76,54.41-76.36,116.44-167.71,128.52-187.22,16-35.81,16-35.81l88.84-42.13-14.18,20.49s8.27-8.08,14.18-14.74c4.19-4.92,9.32-8.81,12.83-14.23l-108.5,49.79s1.59,5.9-16.3,36.86S1358,578.3,1358,578.3l12.37-44.85Z"/>
            <path class="f0fc247f-8f9b-449c-b0f0-f0c3d73136d5" d="M1114.35,709.39S1209.7,553.73,1239,501.89c2-3.47,3.63-6.48,5-8.94,21-39.22,42.58-72.41,42.58-72.41l136.42-63.2-7.07,34.17,13.15-41L1280.33,420l-39.59,67.6L1123.07,688.5l8.29-30.94Z"/>
            <path class="f0fc247f-8f9b-449c-b0f0-f0c3d73136d5" d="M1120.14,756.71l-38.79,64.12L969.2,872.71s31.32-101.38,57-182.81c22.63-72,45.26-138.9,46.45-146.22a268.86,268.86,0,0,0,3.1-30.5l127.4-57.08-12.77,24,5.48-18.85-115.1,55s-.79,20-2.63,27.39c-.87,3.48-21.17,74.55-43.63,148.24-25.06,82.17-53.59,167.9-53.59,167.9s44.73-20.2,59.65-27.25c9.45-4.47,37.85-17.2,37.85-17.2Z"/>
            <path class="f0fc247f-8f9b-449c-b0f0-f0c3d73136d5" d="M481.26,1011.06l-11.64,31s59.8-30.65,72.67-40,21.17-30.3,29.83-57.55,34.65-111,41-131.13-9.45-12.79-14.57-9.75-41.4,19.22-41.4,19.22l-5.7,5.24s57.28-29.25,60-23.86S574.54,913.33,565,944.14s-14.76,46.24-27.86,56.08S475,1035.4,475,1035.4Z"/>
            <path class="f0fc247f-8f9b-449c-b0f0-f0c3d73136d5" d="M311.86,1182.58s202.46-93.25,254.08-120.67,67.65-51.16,71.31-56.3S654,976,654,976s-24.73,45.26-90.31,81.2-233.25,107.36-233.25,107.36S415,944.57,442,879.51s24.33-79.69,24.33-79.69L609,732.56,453,797.49s6.89,8.75-20,79.34C374.83,1029.72,311.86,1182.58,311.86,1182.58Z"/>
            <path d="M213.14,532.73s53.24,45.12,60.65,51.16,57.47,33.14,74.77,19.39,17.28-28.92,6-44.43S326.35,533.1,314,528.17s-25-9.52-29.62-12.35L279.8,513s2.47,9.84,22.92,24.68,37.39,33.45,37.73,40.19l.35,6.7a279.66,279.66,0,0,1-36.67-16.92c-19-10.57-34.21-18-34.21-18l14.82,17.63s-1.42,0-19.05-10.93S223.71,532,213.14,532.73Z"/>
            <path d="M149.67,543S216,602.89,236.76,670.59s-14.1,131.17-37.39,166.08S135.91,910,135.91,910s28.53-48.31,51.84-87.8,41.61-97.64,26.1-151.62S165.89,579.27,149.67,543Z"/>
            <path d="M158.49,604s50.77,46.54,42.3,132.23-48,107.54-48,107.54,18.35-72.28,18.35-114.23S158.49,604,158.49,604Z"/>
            <path class="b8e34a71-9e06-42da-9e64-47bd88f3f669" d="M255.63,600.78c-2.36-2.16-4.92-.78-3.45,2.05,13.18,25.44,35.57,42.38,38,102.67,1.84,45.47-6.75,97.84-19.24,121.65s90.73-90.77,110-123.77S514.44,517.73,514.44,517.73,480.59,532,455.21,540s-34,10.13-55,5.29c-2.3-.53-10.9-3.48-16.24-5.34a.56.56,0,0,0-.49,1c9.9,6.55,35.54,24.29,38.95,34.5,4.23,12.7,1.09,45-30.16,61.88C331.44,670.07,281,623.88,255.63,600.78Z"/>
            <g>
              <path d="M1623.1,900.67a42,42,0,0,1-30-12.25,41.56,41.56,0,0,1-12-29.73c.06-23.39,18.53-41.71,42-41.71a41.09,41.09,0,0,1,41.74,40.42c0,.49,0,1,0,1.46-.06,23.84-18,41.81-41.77,41.81Z"/>
              <path d="M1626.41,892.8a24.14,24.14,0,0,1-3.29-.22,25.52,25.52,0,0,1-2.76.15h-4A24.67,24.67,0,0,1,1591.68,868v0l0-18.51a24.68,24.68,0,0,1,24.67-24.56h6.89c12.09,0,19.52,4.92,23.61,9a29.7,29.7,0,0,1,8.53,21.25,32.3,32.3,0,0,1-.66,6.36,24.67,24.67,0,0,1-17.22,30.34,24.28,24.28,0,0,1-6.51.89Z"/>
            </g>
            <path class="f0fc247f-8f9b-449c-b0f0-f0c3d73136d5" d="M1272.71,494.6s-43.37,137.95-53.23,171.3S1188,767.23,1188,767.23l129.71-59,22.86-32L1319.5,710.8l-141.15,67.41,87.39-268.33L1251,531.48s9.65-17.82,13.11-23.75C1270.1,497.45,1272.71,494.6,1272.71,494.6Z"/>
            <g>
              <path d="M1325.19,918c-18.11,0-33-10.26-39.81-27.45a25.54,25.54,0,0,1-1-3c-9.28-36.09,10.69-60.22,22.63-74.63l2.61-3.17c12-14.85,31.62-25.23,47.67-25.23,16.35,0,29.24,10.31,32.09,25.66a25.24,25.24,0,0,1,.39,5.28,24.77,24.77,0,0,1-15.48,22.16,27.45,27.45,0,0,0-13.2,11.07,29.67,29.67,0,0,1,20.08,10.63,24.68,24.68,0,0,1,.91,30.56C1376.17,898,1350.55,918,1325.19,918Z"/>
              <path d="M1275.54,935.71a24.68,24.68,0,0,1-20.29-10.64c-5.15-7.44-10.44-20.08-10.53-57.37v-3a25.67,25.67,0,0,1-20.16-11.49c-.42-.65-.81-1.31-1.17-2a27.62,27.62,0,0,1-2.61-22.84c2-17.41,17.63-23.45,23.76-25.82a23.66,23.66,0,0,1,2.85-.92c.09-.56.18-1.12.28-1.69-.23-5.33-.56-16.35-.07-28.31,1.14-27.61,5.85-44.38,15.29-54.41a31.74,31.74,0,0,1,22.63-10.24l4.26-1a25,25,0,0,1,5.32-.58,24.72,24.72,0,0,1,15,5.06c13.92,10.62,15.25,30.65,12.85,61.65-.19,2.39-.39,4.77-.61,7.1a24.63,24.63,0,0,1,15.74,6.23c5,4.43,10.46,12.23,9.08,24.59a24.67,24.67,0,0,1-15.34,29.09l-3.23,1.36c-3.58,1.53-9.07,3.85-15.87,6.56a6,6,0,0,1-.09.61,28.57,28.57,0,0,1-.24,13.07,24.52,24.52,0,0,1-1.42,11.16,72,72,0,0,0-.43,7.63c-.17,7.46-.38,16.43-3.93,25.22-.61,20.43-16.73,27.64-23.86,29.83A24.51,24.51,0,0,1,1275.54,935.71Z"/>
              <path d="M1376.57,898.47a25.65,25.65,0,0,1-19.36-8.78c-7.87-9.09-6.69-19.72-5.78-26.33.82-8.86,1.41-20.11,2-32.05,1.87-36,4.2-80.83,15.36-110.81a24.69,24.69,0,0,1,10.68-12.65c3.69-3.75,11.53-11.11,23.82-11.11a30.06,30.06,0,0,1,4.92.41,24.67,24.67,0,0,1,14.75,7c16.25,16.12,12.66,35.06,10.93,44.16-.31,1.66-.73,3.93-.78,4.92a24.79,24.79,0,0,1,.44,5.64,70.72,70.72,0,0,1,9.2-.61,55.54,55.54,0,0,1,26.16,6.09,24.69,24.69,0,0,1,10.31,10.28c13.77,26,13.33,58.85-1.33,94.91a24.63,24.63,0,0,1-9.12,11.2c-7.87,13.77-19.77,16-26.56,16a39.24,39.24,0,0,1-12.87-2.33,24.7,24.7,0,0,1-16.4-20.28c-8.26,16.34-20.74,21.64-28.72,23.27A27.73,27.73,0,0,1,1376.57,898.47Z"/>
              <path d="M1489.92,973.76c-20.05,0-30-10.06-34.61-17.27-10-12-13.25-26.94-9.25-42.56,2.88-11.25,8.86-21.11,14.6-30.63,2-3.22,3.79-6.26,5.42-9.21,10-18.25,32.46-32.57,51.05-32.57,14.41,0,26.16,8.07,30.67,21.07a25.21,25.21,0,0,1,.79,2.79l.35,1.61a24.68,24.68,0,0,1-13.77,27.73,24.88,24.88,0,0,0-12,10.13h1.42a29.84,29.84,0,0,1,19.94,7.78,24.68,24.68,0,0,1,4.78,30.86c-5.38,9.12-15.29,18.83-23.62,23.07a24.17,24.17,0,0,1-5.13,2l-2.46.64C1511.13,971,1500.48,973.76,1489.92,973.76Z"/>
              <path d="M1373.74,1077.46a24.71,24.71,0,0,1-20-10.19c-5.67-7.82-11-20.89-11.68-63.23-.33-20.79.62-39.5.66-40.33a19.57,19.57,0,0,1,.22-2.18,125,125,0,0,0,.75-12.54,160.73,160.73,0,0,1,1.41-19.86c-1.83-18.08-2.14-46.9,11.48-62.27a32.65,32.65,0,0,1,21.34-11.07l2.29-1a24.7,24.7,0,0,1,9.19-2.18h2.5a24.7,24.7,0,0,1,17.89,9.24c11.07,13.87,11.39,28.64,11.6,38.37a56.88,56.88,0,0,0,.63,9,24.69,24.69,0,0,1-2.75,17,24.53,24.53,0,0,1-.51,17.35c-4.62,11.31-7.36,23-9.28,33.72a28.94,28.94,0,0,1,0,12.29,24.79,24.79,0,0,1-1,10.82c-.4,2.49-.45,9.12-.48,13.58-.09,11.38-.16,22.24-3.32,31.48.07,21-16.27,28.45-23.54,30.73A24.35,24.35,0,0,1,1373.74,1077.46Z"/>
              <path d="M1446.38,1005.63a28.83,28.83,0,0,1-16.14-4.92c-.64-.45-1.27-.92-1.87-1.41a43,43,0,0,1-8.08.77c-10,0-17.54-3.56-22.55-5.9-1-.44-1.88-.9-2.86-1.3a24.69,24.69,0,0,1-13.78-14.55l-.39-1.09c-2.85-8-7.87-22-3.64-36.3a50.25,50.25,0,0,1,5.21-20.72l1.34-4.51a27.54,27.54,0,0,1,1.14-3.07c15.74-34.94,36.51-50.82,71.82-54.8a23.73,23.73,0,0,1,2.79-.16A24.65,24.65,0,0,1,1480.13,869l6,9.33a24.69,24.69,0,0,1,3.08,19.6,313.46,313.46,0,0,0-7.87,39.09,27.13,27.13,0,0,1,7.55,18.27c.14,9.48-4.42,16.1-9,20.48-.54,5.74-2.95,12.53-9.13,19.67a24.74,24.74,0,0,1-10.31,7.06l-.58.23a35.91,35.91,0,0,1-13.4,2.87Z"/>
              <path d="M1538.37,1003.17a30.54,30.54,0,0,1-3.94-.25,24.71,24.71,0,0,1-19-13.43c-9.2-18.36-9.22-26.91-8.42-43,.06-1.21.13-2.5.19-3.89,1-26.69,3.71-61.27,6.38-94.73,1.85-23.14,3.59-45,4.61-62.63a25.08,25.08,0,0,1,1.46-7.06l4.42-12.06a24.66,24.66,0,0,1,19.51-16l.49-.26c3.67-2,9.84-5.13,17.86-5.13a29.89,29.89,0,0,1,24.82,13.46,24.5,24.5,0,0,1,3.1,6.28,50,50,0,0,1,2.83,12.07l.07-.1c6.16-8.55,16-13.39,27-13.39a37.92,37.92,0,0,1,9.31,1.15,24.68,24.68,0,0,1,18,29.9c-.12.46-.25.91-.39,1.36-5.84,18.81-16,35.74-25.88,52.1-3.7,6.14-7.48,12.41-11,18.78.92,1.42,1.8,2.85,2.66,4.23,1.4,2.24,3.47,5.55,4.49,6.89a25.13,25.13,0,0,1,3.37,3.84c2,2.73,5.63,5.8,9.93,9.36,7.26,6,16.26,13.44,24.76,25.34a24.72,24.72,0,0,1,4.71,20.28c-.5,8.85-3.55,14.75-7.31,18.78A25.56,25.56,0,0,1,1633,964c-4.16,0-11.91,0-40.34-16.84-3.35-2-7.67-4.62-12.42-7.7-1.35,10-2.61,20.22-3.37,30.68a24.72,24.72,0,0,1-7.62,16.14,14.08,14.08,0,0,0-1,1.11C1563.46,992.5,1553.63,1003.17,1538.37,1003.17Z"/>
              <path d="M1227.31,1158.78a24.68,24.68,0,0,1-19.46-9.5,37.73,37.73,0,0,1-5.43-9.49,32.39,32.39,0,0,1-16.14,4.24,33.81,33.81,0,0,1-5.22-.41,24.68,24.68,0,0,1-20.74-22.63c-1.14-15.93,9.83-25.94,15.17-30.77.71-.64,1.8-1.64,2.13-2s.86-1,1.33-1.41l31.1-30.4c.9-2.8,1.67-5.3,2.36-7.6a24.68,24.68,0,0,1-6.89-27.71,77.08,77.08,0,0,1,8.7-15.69c3.22-4.76,3.93-6,4.16-8.37a24.14,24.14,0,0,1,.46-3,43.51,43.51,0,0,1,2.51-7.64c0-.38-.09-.78-.11-1.16-.74-.31-1.47-.66-2.19-1l-3.31-1.78a24.7,24.7,0,0,1-10-33.45l0-.07c6.11-11.24,14.44-24,27.3-31.59,5.27-13.78,19.38-17.41,29.91-19.29,11.21-4.52,25.42-4.92,30.08-4.92,19.26,0,34.22,5.56,43.29,16a24.67,24.67,0,0,1,1.65,2.26,38.59,38.59,0,0,1,7.08,20.77c20.51,1.74,31.59,12.43,37.44,21.87a24.63,24.63,0,0,1,2.75,5.68,26.38,26.38,0,0,1,1.09,4.81c2.17,13.25-2.3,30.29-5,35.71l-.3.59c-17.53,33.21-49.44,55.47-77.6,75.12-10.82,7.54-21.16,14.76-29.51,21.82a109,109,0,0,1-3.45,11.44,62.25,62.25,0,0,0-2.24,7.43,24.61,24.61,0,0,1-2.81,7.69c-.62,1.08-1.27,2.41-2,3.94-3.39,6.88-8.5,17.32-20.77,25.58a24.79,24.79,0,0,1-5.73,2.87l-1.52.52A24.59,24.59,0,0,1,1227.31,1158.78Z"/>
              <path d="M1222.67,970.61a28.09,28.09,0,0,1-10-1.84c-14.22-4.69-22.4-20.36-21.55-41.9a25.56,25.56,0,0,1,1-6.07c1-3.16.93-12.51.93-18.69,0-12.71,0-25.85,4.31-37a24.58,24.58,0,0,1,10.92-12.54c.29-.16.62-.38,1-.6,4.2-2.61,12-7.47,22.63-7.47a33.59,33.59,0,0,1,13.4,2.79,24.7,24.7,0,0,1,18.45,24.6c-.11,4-1.69,22.89-3.64,39.35-1.24,10.41-2.5,18.93-3.76,25.3-1.56,7.87-4.3,21.77-16.33,28.15a28.6,28.6,0,0,1-17.31,6Z"/>
              <path d="M1231.51,889.39c-7.34,0-17.63-2.38-26-13.32a21.72,21.72,0,0,1-1.42-1.86,35.25,35.25,0,0,1-4-7.66,24.47,24.47,0,0,1-1.65-12c2-17.28,16.84-29.34,36.2-29.34a40.28,40.28,0,0,1,15.74,3.07,23.44,23.44,0,0,1,2.41,1.19,27.41,27.41,0,0,1,3.13,2.08c10.82,8.41,12.56,18,12.13,24.6-.89,14.23-12,20.81-15.61,23l-.59.34a24.67,24.67,0,0,1-18.27,9.89C1232.89,889.37,1232.2,889.39,1231.51,889.39Z"/>
              <path d="M1162.1,1014.8a30.5,30.5,0,0,1-30-24.34c-5.34-18.41-3.94-45.85-2.28-77.4a9.75,9.75,0,0,1,.08-1.51A25.92,25.92,0,0,1,1118.49,894a50.21,50.21,0,0,1-.64-7.25,24.87,24.87,0,0,1,2.49-11.68c2.5-5.11,8-12.09,13.09-17.94,0-4.37.14-8.71.32-13a25,25,0,0,1-6.14-2.26l-3.31-1.76A24.68,24.68,0,0,1,1114,806.74c.21-.4.43-.78.66-1.16,8.85-14.69,15-23.93,32.13-33.86.53-.45,1.09-.88,1.67-1.29a35.19,35.19,0,0,1,19-9.21,48.32,48.32,0,0,1,15.57-2.79,25.19,25.19,0,0,1,2.78.1c1.13-.27,2.28-.56,3.5-.78l5.25-1.18a25.57,25.57,0,0,1,3.8-.54c2-.12,3.93-.28,5.9-.43,5.6-.42,11.39-.86,16.84-.86,2.4,0,4.57.08,6.61.26,24.25,1.37,41.32,17.71,40.84,39.19.77,12,.25,26.06-10.27,41.6a22.5,22.5,0,0,1-2.39,3c-10.24,11-15.31,15.57-21.58,20.85l-23.92,25.79a56.89,56.89,0,0,1-9.84,9.15c-.72,45.18-8.2,90.33-8.56,92.38a20.51,20.51,0,0,1-.47,2.23c-.13.49-.82,3.07-1.91,6.13-.08.23-.15.46-.24.69a29.1,29.1,0,0,1-27.25,18.79Z"/>
            </g>
            <path class="f6eb69de-5514-4cc3-962e-f73028fdd561" d="M1365.11,814.76c-2.11-11.39-24.82-3.58-36.33,10.62-11,13.57-27.17,30.11-20.48,56.08,11,27.64,50.08-1,54-6.21-4.8-5.72-13.45,3-22,3-3.73-2-8.27-2-10.51-4.47.61-20.14,7.68-47.88,35.36-59Z"/>
            <path class="f6eb69de-5514-4cc3-962e-f73028fdd561" d="M1270.64,833.9a3.87,3.87,0,0,0-.12.83s-4.67,62.3,5,76.29c10.1-3.11,4.64-8.14,7.16-13.29,5.27-9,1.41-25,5.17-34.43-3.85-4.15,4-9.06-.88-12,1.62-8.2,2-13.89,3.24-22,17.42-6.45,30.5-12.33,33-13.26-2.81-6.63,1.3-9.57-1.52-12.08-3.46,1.77-17.71,5-28.25,9.72.49-1.16-.38-3.23.24-4.51,1-5.59,10.82-71.82,1.4-79l-7.53,1.66c-19.59-3.93-15.11,70-15.11,70-1.47,6.22-1.3,12.3-1.14,18.29-3.45,1.18-15.08,5-17.87,5.49-10.22,3.93-7.75,5.27-8.33,8.17v-.08c-1.8,3.93-.85,4.21.08,6,.91,1.4,11.73-1.12,25.5-5.84Z"/>
            <path class="f6eb69de-5514-4cc3-962e-f73028fdd561" d="M1378.77,873.27c18.86-3.24,17.71-39.35,21-55.87,11.55-8.64,20.42-15.47,39.46-16.59,6.88,17.77-3.82,51.49-1.79,70.18,13.77,4.73,7.7-9.11,17.64-10.82,7.61-18.69,15.88-48.57,2.38-74-18.08-9.53-47.69,4.08-53.89,12.25l3.08-13c1.07-11.5,0-17.59,2.28-27.55-2.73-12.41,7.88-25.16-3.3-36.3v.31c-5.9-3-9.57,6.27-13.69,7.15-13.42,36.12-12.67,101.79-16,137.21-1.1,8-.64,8.32,2.79,7Z"/>
            <path class="f6eb69de-5514-4cc3-962e-f73028fdd561" d="M1507.53,937.21c-4-1.54-9.76-2-12.57-4.16-2.38-19.86.67-47.36,29.88-60.77l-.36-1.59c-3.84-11.1-28.38,0-36.8,15.33-11.09,20.08-28,39.42-12.19,56,5.59,12.38,28.36,5.22,39,2.51,3.81-2,10.3-8.08,13.55-13.6-5.91-5.28-11.72,5.59-20.5,6.27Z"/>
            <path class="f6eb69de-5514-4cc3-962e-f73028fdd561" d="M1390.51,877.3h-.11l-7.19,3.25c-19.68-3.77-13.16,49.38-13.16,49.38-2.3,11.26-1.12,24.23-2.65,35.1,0,0-3.82,73.74,6.34,87.75,10.06-3.17,4.46-8.22,6.81-13.3,4.86-9,1-37.12,4.48-46.58-3.94-4.08,3.71-9-1.17-12,2.38-14.88,5.65-30.93,12.08-46.62-5.47-.71,1.1-6.12-3.28-6.81,3.41-5.47,1.42-8.85,5.17-13.38-2.64-13.27,1.6-25.68-7.31-36.84Z"/>
            <path class="f6eb69de-5514-4cc3-962e-f73028fdd561" d="M1461.94,952.92c-1.23,1.79-4.76,1.55-6.67.57h0c.46-20.08,5.18-43.37,10-61.81l-6-9.34c-26.94,3-40.08,13.86-52,40.41l-2,6.52c-3.38,6.58-3.47,9.13-3.79,16.63-3.56,7.27.39,17.32,2.82,24.16,8.6,3.56,15.17,9.27,28.19,1.35,7.06-1.53,11.41,3.29,11.54,8.85,2.41,1.63,5.31,0,8-1,2.75-3.19,5.08-7.51,1-9.27C1447.92,962.27,1471.26,958.6,1461.94,952.92Zm-26.85,9.73h0c-7.34,3.71-8.62-1.71-11.53-4.41-2-15.38.43-46.66,15.22-50.89Z"/>
            <path class="f6eb69de-5514-4cc3-962e-f73028fdd561" d="M1635.65,931.31c-12.36-17.81-26.89-23.67-35.42-35.73-5.4-4.58-12.35-20.17-19.45-26.65,13.87-29.33,34-53.72,42.4-80.74-3.23-.8-7.87-.67-10.3,2.64-15.88,22.23-32.47,43-43.51,67-9.65-6.09-.63-16.41,0-25.4-3-7.36-.38-11.81,1.73-20.91-4.59-9-.19-30.4-4.77-39.35h.1c-5-7.31-11.66,2.43-19.13,2.39l-4.42,12.06c-2.5,43.49-9.41,112.48-11,156.94-.77,16.89-1.7,20.21,5.64,34.85,5.9.75,11.43-7,14.69-10.06,1.85-25.86,6.48-49.19,8.49-72.05l6.88,2.63c20.84,19.93,68.05,45,66.05,39.62,2.24-.21,1-5.83,2-7.34Z"/>
            <path class="f6eb69de-5514-4cc3-962e-f73028fdd561" d="M1361.85,967.7c-10.4-17.77-34.89-9.24-57-6.58,3.45-8.27,22.31-21.49,12.65-35.77-9.72-11.3-40.9-7.48-47.22-3.49-22.43,3.78-10.1,4.46-17.77,14.12-10.34,2.07-17.71,11.14-25.17,24.79l3.31,1.79c9.58-6.6,10.74-10.2,23.21-10.45,1.12,5.08-3.94,26.93-8.09,31.55,4,3.67-1.73,10.39-3,15.74-1.38,14.24-10.21,19.82-14.43,30.65,8,.91,6.74-7.88,14.63-7.24-3.23,20.33-4.81,26.69-11.44,47l-35.41,34.66c-4.07,4.67-11.67,9.19-11.27,14.76,5.74.91,9.22-4.16,12.3-7.55,9.47-4.55,18.35-16.63,28.3-14.32,5.64,9.65-6.5,26.13,1.76,36.72l1.52-.53c8.94-6,11-14,15.17-21.33,1.72-9.26,6.75-17.64,6.7-26.62,30-28.91,85.83-53.12,108.55-96.18,2-3.93,4-18.47,2.52-21.78h.07ZM1277.37,952l1.45-2.06c-2-13.11,15.54-13.3,24-18.47,2.77,27.49-22.57,33.8-26.85,47.16v-.07c-.07-8.67,4.67-18.62,1.45-26.56Zm-8.85,93.59a8.66,8.66,0,0,0,.87-5.34c-.07-.36-.15-.72-.24-1a19.36,19.36,0,0,1,1.34-1.88l.19-1.23a96.12,96.12,0,0,0,1-13.44,109.65,109.65,0,0,1,1.24-14.48h0c20.07-21.9,60.1-41.67,66.62-34.3.07,0,0-.05,0,0,3.13,11.94-45.59,51.74-71.06,68.58Z"/>
            <path class="f6eb69de-5514-4cc3-962e-f73028fdd561" d="M1220.83,945.45c3.56,1.74,4.86-1.77,7.29-2.47,5.44-1.72,10.82-66.84,10.93-71.75l-1.74-.18c-6.5-4.66-12.86.79-17,3.1-5,12.85-.41,39.76-4.56,53.69C1215.42,936.75,1217.83,944.87,1220.83,945.45Z"/>
            <path class="f6eb69de-5514-4cc3-962e-f73028fdd561" d="M1223,857.31a10.52,10.52,0,0,0,1.39,2.81l.07-.1h0v.08c2.15,3.2,4.27,4.8,7.65,4.6,5.14-8.4,16.55-7.58,8.67-13.73l-.13-.07c-4.91-2.1-16.78-1.51-17.7,6.4Z"/>
            <path class="f6eb69de-5514-4cc3-962e-f73028fdd561" d="M1217,841.94c5.85-4.92,10.19-8.56,20.79-19.93,6.74-10,6.71-18,5.9-28.07h.08c.36-9.74-9.63-13.89-17.89-14.28-6.89-.65-16.81.44-26,1L1194,782c-1.3.17-4.53,1.12-5.71,1.27.17.21.17,2,0,1-4.39-2.26-10-1-15.2,1.12-3.6.18-6.08,1.09-9.3,4.54a6.88,6.88,0,0,1-1,.57v.57c-15.47,8.18-18.87,13.77-26.94,27.19l3.31,1.75c10-6.21,9.36-12.79,22.1-12.84a4.37,4.37,0,0,1,.06.72c-1.84,19.84-3.75,38.87-3,58.63-8.22,8.46-14.43,16.68-15.74,19.35.36,10.74,1.11.57,12.38-.33l.4,12.28c-1.64,35.68-4.64,70.72,1,87.15.09,4.68,7.87,7.65,10.06,2.12.8-2.28,1.31-4.23,1.31-4.23s8.86-52.83,8.24-100c4.2-5,11.15-7.75,15.9-13.68l25.27-27.26Zm-37.48,8.7a39.44,39.44,0,0,1,3.82-18.54c1.66-13.47,2.67-27.67,5.35-28.83,11-4.85,32.52-9,35.42-3l-.66,5.91v.11c-2.31,15-42.08,47.32-43.89,44.27Z"/>
            <path class="f6eb69de-5514-4cc3-962e-f73028fdd561" d="M1623.22,841.69c-9.14,0-17.34,6.31-17.37,17.1S1614,876,1623.13,876s17.09-6.31,17.12-17.19S1632.24,841.71,1623.22,841.69Zm-.08,30.37c-7,0-13.28-4.91-13.26-13.25s6.34-13.16,13.33-13.15,13.12,4.86,13.1,13.19-6.22,13.22-13.17,13.21Z"/>
            <path class="f6eb69de-5514-4cc3-962e-f73028fdd561" d="M1630.8,855.11c0-4.14-2.86-5.54-7.5-5.54h-6.89v18.52h3.93V860.3h1.81l4.26,7.87H1631l-4.68-8.17C1628.83,859.82,1630.79,858.62,1630.8,855.11Zm-7,2h-3.36v-4.49H1623c1.58,0,3.62.22,3.62,2.12S1625.56,857.15,1623.75,857.15Z"/>
            <path class="f6eb69de-5514-4cc3-962e-f73028fdd561" d="M930.38,1206.54v61.85h5.08a7.86,7.86,0,0,0,6.54-2.53,13.82,13.82,0,0,0,1.89-8.07V1216.7a13.58,13.58,0,0,0-1.82-7.26,7.24,7.24,0,0,0-6.61-2.9Zm-10.88,73.33v-84.95h16.18a18,18,0,0,1,14.52,5.67,24.21,24.21,0,0,1,4.65,16.11v39.93a25.33,25.33,0,0,1-5.23,17.57,19.14,19.14,0,0,1-14.88,5.67Z"/>
            <polygon class="f6eb69de-5514-4cc3-962e-f73028fdd561" points="959.78 1279.87 959.78 1195.14 992.31 1195.14 992.31 1206.54 970.68 1206.54 970.68 1231.44 989.55 1231.44 989.55 1242.83 970.68 1242.83 970.68 1267.67 992.31 1267.67 992.31 1279.87 959.78 1279.87"/>
            <polygon class="f6eb69de-5514-4cc3-962e-f73028fdd561" points="1052.64 1195.14 1041.89 1279.87 1032.16 1279.87 1024.32 1224.83 1024.11 1224.83 1016.26 1279.87 1006.61 1279.87 995.86 1195.14 1006.75 1195.14 1011.91 1248.87 1020.26 1195.14 1028.1 1195.14 1036.52 1250.24 1041.68 1195.14 1052.64 1195.14"/>
            <path class="f6eb69de-5514-4cc3-962e-f73028fdd561" d="M1076.86,1222.13a12.18,12.18,0,0,1-12.63-11.71v-.88a12.59,12.59,0,1,1,25.17-.7c0,.23,0,.47,0,.7a12.13,12.13,0,0,1-11.67,12.59Zm0-28.8a15.82,15.82,0,0,0-16.46,15.14v1.07a15.86,15.86,0,0,0,15.38,16.32h1.08a15.74,15.74,0,0,0,16.27-15.19v-1.13a15.74,15.74,0,0,0-15.19-16.21Z"/>
            <path class="f6eb69de-5514-4cc3-962e-f73028fdd561" d="M1077.42,1208h-3.23v-4.23h2.52c1.52,0,3.47,0,3.47,2S1079.13,1208,1077.42,1208Zm2.47,2.72a4.14,4.14,0,0,0,4.26-4v-.64c0-3.94-2.73-5-7.15-5h-6.61v17.47h3.77V1211h1.76l4.09,7.55h4.37Z"/>
            <g>
              <path d="M1130.91,1236a9.81,9.81,0,0,0-7.34,0h-5.9a9.85,9.85,0,0,1-9.48-7.1l-6.62-22.62a9.84,9.84,0,0,1,6.63-12.24,10.25,10.25,0,0,1,2.86-.41h6a9.91,9.91,0,0,0,7.38,0h5.56a10,10,0,0,0,7.47,0h5.9a9.84,9.84,0,0,1,9.88,9.8,10,10,0,0,1-.4,2.83l-6.57,22.62a9.85,9.85,0,0,1-9.49,7.12Z"/>
              <path d="M1144.71,1236a9.85,9.85,0,0,1-9.84-9.84v-22.63a9.8,9.8,0,0,0,0-3.5v-5.12a9.85,9.85,0,0,1,9.84-9.84h5.73a9.85,9.85,0,0,1,9.84,9.84V1200a9.8,9.8,0,0,0,0,3.5v22.63a9.85,9.85,0,0,1-9.84,9.84Z"/>
              <path d="M1161.81,1236.26c-12.14,0-16.45-8.21-16.45-15.26v-5.81a9.89,9.89,0,0,1-3.46-7.52v-4.16a28,28,0,0,1,13.34-16.65H1161a30.08,30.08,0,0,1,14.07,16.65v4.16a9.79,9.79,0,0,1-2.73,6.82,9.81,9.81,0,0,1,2.73,6.83v4.85a9.83,9.83,0,0,1-8.11,9.72A28.23,28.23,0,0,1,1161.81,1236.26Z"/>
              <path d="M1180.49,1236a9.86,9.86,0,0,0-8.1,0h-5.74a9.85,9.85,0,0,1-9.84-9.84v-31.24a9.85,9.85,0,0,1,9.84-9.84h5.74a9.86,9.86,0,0,1,9.75,8.32c5.53,1,14,4.75,14,18.88v13.91a9.85,9.85,0,0,1-9.84,9.84Z"/>
              <path d="M1205.5,1236.61c-9.84,0-17-7-17-16.65a18.11,18.11,0,0,1,1.14-6.4,9.8,9.8,0,0,1-.48-3.64c.56-10.1,8.46-16.9,19.68-16.9,14.05,0,19,8.79,19,16.31v11.8a14.46,14.46,0,0,0,.07,1.47,9.84,9.84,0,0,1-5.55,12.75,10,10,0,0,1-3.66.69h-5.81a9.68,9.68,0,0,1-1.7-.15A21.36,21.36,0,0,1,1205.5,1236.61Z"/>
              <path d="M1231.73,1236a9.85,9.85,0,0,1-9.84-9.84v-31.24a9.85,9.85,0,0,1,9.84-9.84h13.56c14.08,0,19.06,9.49,19.06,17.61a18,18,0,0,1-.78,5.36,19.23,19.23,0,0,1,2.16,9.08c0,11-8.43,18.93-20,18.93Z"/>
              <rect x="1248.6" y="1185.03" width="25.48" height="50.97" rx="9.88"/>
              <path d="M1273.68,1236.61c-9.84,0-17-7-17-16.65a18.37,18.37,0,0,1,1.14-6.4,9.8,9.8,0,0,1-.48-3.64c.56-10.1,8.46-16.9,19.68-16.9,14,0,19,8.79,19,16.31v11.8a14.46,14.46,0,0,0,.07,1.47,9.84,9.84,0,0,1-5.55,12.75,10,10,0,0,1-3.66.69h-5.81a9.68,9.68,0,0,1-1.7-.15A21.36,21.36,0,0,1,1273.68,1236.61Z"/>
              <path d="M1298.18,1236.61c-11.35,0-19.26-7-19.68-17.44a9.81,9.81,0,0,1,1-4.79,16.19,16.19,0,0,1-.56-4.22c0-8.53,5.91-17.14,19-17.14,10.82,0,18.25,6.41,19,16.32a9.73,9.73,0,0,1-.42,3.75,16.49,16.49,0,0,1,1,5.78C1317.57,1229.32,1309.59,1236.61,1298.18,1236.61Z"/>
              <path d="M1317.9,1236.26c-12.14,0-16.45-8.21-16.45-15.26v-5.81a9.87,9.87,0,0,1-3.47-7.52v-4.16a28.18,28.18,0,0,1,13.34-16.65h5.74a30.16,30.16,0,0,1,14.07,16.65v4.16a9.84,9.84,0,0,1-2.74,6.82,10,10,0,0,1,2.74,6.83v4.85a9.85,9.85,0,0,1-8.12,9.72A28.23,28.23,0,0,1,1317.9,1236.26Z"/>
              <path d="M1342.83,1236.61c-12,0-20.66-9.15-20.66-21.77s8.69-21.82,20.66-21.82,20.66,9.18,20.66,21.82S1354.82,1236.61,1342.83,1236.61Z"/>
              <path d="M1357.35,1236a9.84,9.84,0,0,1-9.83-9.84v-11a9.82,9.82,0,0,1-3.44-7.48v-4.16a9.84,9.84,0,0,1,4.67-8.38c2.43-6.12,8.26-10.11,15.62-10.11.87,0,1.77.06,2.64.13l.84.06a9.85,9.85,0,0,1,9.42,9.84v4.67a9.75,9.75,0,0,0-.33,3.81v4.16a9.85,9.85,0,0,1-3.93,7.87v10.56a9.85,9.85,0,0,1-9.84,9.84Z"/>
              <path d="M1378.86,1236a9.85,9.85,0,0,1-9.84-9.84v-31.24a9.85,9.85,0,0,1,9.84-9.84h12.43c11.42,0,22.94,7.87,22.94,25.32,0,15.35-9.22,25.66-22.94,25.66Z"/>
              <path d="M1413.11,1236.61c-9.84,0-17-7-17-16.65a18,18,0,0,1,1.14-6.41,9.72,9.72,0,0,1-.48-3.63c.56-10.1,8.46-16.9,19.67-16.9,14,0,19,8.79,19,16.31v11.8a10.34,10.34,0,0,0,.07,1.47,9.86,9.86,0,0,1-9.21,13.44h-5.82a9.68,9.68,0,0,1-1.7-.15A21.34,21.34,0,0,1,1413.11,1236.61Z"/>
              <path d="M1428.8,1236a9.85,9.85,0,0,1-9.84-9.84v-22.63a9.85,9.85,0,0,1,9.84-9.84h5.45a10.1,10.1,0,0,1,1.82.17,16.13,16.13,0,0,1,4.92-.79,14,14,0,0,1,4.61.82,9.82,9.82,0,0,1,6.51,9.28v5.77a9.8,9.8,0,0,1-3.8,7.78,9.66,9.66,0,0,1-3.94,1.85v7.61a9.84,9.84,0,0,1-9.84,9.84Z"/>
              <path d="M1457.45,1236a9.88,9.88,0,0,1-3.94-.84,9.7,9.7,0,0,1-3.93.84h-5.73a9.85,9.85,0,0,1-9.84-9.84v-31.24a9.85,9.85,0,0,1,9.84-9.84h5.73a9.83,9.83,0,0,1,9.83,8.62h4.21a9.84,9.84,0,0,1,7.17,16.66l-2.67,2.82,4.8,7.87a9.84,9.84,0,0,1-3.17,13.55,10,10,0,0,1-5.25,1.48Z"/>
              <path d="M1488.63,1236.74c-13.93,0-24-11-24-26.1s10.1-26.36,24-26.36a21.86,21.86,0,0,1,22.25,20.07,15,15,0,0,0,.26,10.56C1510.07,1227.76,1500.81,1236.74,1488.63,1236.74Z"/>
              <path d="M1503.92,1236a9.85,9.85,0,0,1-9.84-9.84v-22.63a9.8,9.8,0,0,0,0-3.5v-5.12a9.85,9.85,0,0,1,9.84-9.84h5.73a9.85,9.85,0,0,1,9.84,9.84V1200a9.8,9.8,0,0,0,0,3.5v22.63a9.85,9.85,0,0,1-9.84,9.84Z"/>
              <path d="M1521,1236.26c-12.15,0-16.46-8.21-16.46-15.26v-5.81a9.89,9.89,0,0,1-3.46-7.52v-4.16a28,28,0,0,1,13.34-16.65h5.73a30.08,30.08,0,0,1,14.07,16.65v4.16a9.84,9.84,0,0,1-2.74,6.82,9.82,9.82,0,0,1,2.74,6.83v4.85a9.83,9.83,0,0,1-8.12,9.72A29,29,0,0,1,1521,1236.26Z"/>
              <path d="M1525.89,1236a9.85,9.85,0,0,1-9.84-9.84v-22.63a9.85,9.85,0,0,1,9.84-9.84h5.44a10.1,10.1,0,0,1,1.82.17,16.13,16.13,0,0,1,4.92-.79,14,14,0,0,1,4.62.82,9.84,9.84,0,0,1,6.51,9.28v5.77a9.84,9.84,0,0,1-3.81,7.78,9.68,9.68,0,0,1-3.93,1.85v7.61a9.85,9.85,0,0,1-9.84,9.84Z"/>
              <path d="M1547.94,1236.61c-4.11,0-17.5-1.38-17.5-19.19v-13.91a9.84,9.84,0,0,1,9.83-9.84H1546a9.89,9.89,0,0,0,8.11,0h5.73a9.84,9.84,0,0,1,9.84,9.84v22.63a9.84,9.84,0,0,1-9.84,9.84h-5.43a10.25,10.25,0,0,1-1.56-.12A17.11,17.11,0,0,1,1547.94,1236.61Z"/>
              <path d="M1571.78,1236.61c-11.35,0-19.25-7-19.68-17.44a9.92,9.92,0,0,1,1-4.79,16.18,16.18,0,0,1-.55-4.22c0-8.53,5.91-17.14,19-17.14,10.77,0,18.25,6.41,19,16.32a9.93,9.93,0,0,1-.43,3.75,16.27,16.27,0,0,1,1,5.78C1591.18,1229.32,1583.2,1236.61,1571.78,1236.61Z"/>
              <path d="M1594,1236a9.85,9.85,0,0,1-9.84-9.84v-31.24a9.85,9.85,0,0,1,9.84-9.84h13c11.68,0,19.84,8.18,19.84,19.89,0,10.6-6.69,18.32-16.63,19.67v1.55a9.84,9.84,0,0,1-9.83,9.84Z"/>
              <path d="M1626.64,1236.61c-4.1,0-17.5-1.38-17.5-19.19v-13.91a9.85,9.85,0,0,1,9.84-9.84h5.73a9.89,9.89,0,0,0,8.11,0h5.73a9.85,9.85,0,0,1,9.84,9.84v22.63a9.85,9.85,0,0,1-9.84,9.84h-5.42a10.28,10.28,0,0,1-1.57-.12A17.06,17.06,0,0,1,1626.64,1236.61Z"/>
              <path d="M1655.53,1236a9.89,9.89,0,0,0-8.11,0h-5.73a9.84,9.84,0,0,1-9.84-9.84v-22.63a9.84,9.84,0,0,1,9.84-9.84h5.45a10.25,10.25,0,0,1,1.56.12,16.76,16.76,0,0,1,4.92-.74c4.11,0,17.5,1.39,17.5,19.2v13.91a9.84,9.84,0,0,1-9.84,9.84Z"/>
              <path d="M1674.25,1236.61c-11.64,0-20.4-9.22-20.4-21.46,0-12.79,8.62-22.13,20.52-22.13,10.74,0,19,7.5,19.67,17.83a18.48,18.48,0,0,0,.07,7.8C1692.8,1229.4,1684.82,1236.61,1674.25,1236.61Z"/>
              <path d="M1700.1,1236a9.86,9.86,0,0,0-8.1,0h-5.75a9.85,9.85,0,0,1-9.84-9.84v-31.24a9.85,9.85,0,0,1,9.84-9.84H1692a9.85,9.85,0,0,1,9.75,8.32c5.54,1,14,4.75,14,18.88v13.91a9.85,9.85,0,0,1-9.84,9.84Z"/>
              <path class="a311875f-358e-4c36-b864-8606fc24bf8b" d="M1136.8,1226.13h-5.9l-3.71-15.18h-.08l-3.55,15.18h-5.9l-6.61-22.63h6l3.82,15.36h.09l3.47-15.36H1130l3.56,15.31h.07l3.84-15.31h5.9Z"/>
              <path class="a311875f-358e-4c36-b864-8606fc24bf8b" d="M1150.44,1200h-5.73v-5.12h5.73Zm-5.73,3.5h5.73v22.63h-5.73Z"/>
              <path class="a311875f-358e-4c36-b864-8606fc24bf8b" d="M1161,1203.51h4.21v4.16H1161v11.2c0,2.09.5,2.62,2.42,2.62a9,9,0,0,0,1.79-.17v4.85a19.89,19.89,0,0,1-3.36.21c-3.5,0-6.57-.87-6.57-5.38v-13.33h-3.47v-4.16h3.47v-6.78H1161Z"/>
              <path class="a311875f-358e-4c36-b864-8606fc24bf8b" d="M1166.65,1194.89h5.74v11.81h.11a7.24,7.24,0,0,1,6.09-3.76c6.1,0,7.63,3.72,7.63,9.32v13.91h-5.73v-12.79c0-3.71-1-5.55-3.67-5.55-3.1,0-4.43,1.88-4.43,6.47v11.81h-5.74Z"/>
              <path class="a311875f-358e-4c36-b864-8606fc24bf8b" d="M1199.05,1210.47c.32-5.82,5.12-7.57,9.84-7.57,4.15,0,9.16,1,9.16,6.43v11.8c0,2.06.19,4.11.72,5H1213a9.59,9.59,0,0,1-.4-2.2,9.15,9.15,0,0,1-7,2.81c-3.93,0-7.09-2.15-7.09-6.78,0-5.12,3.54-6.35,7.09-6.89s6.78-.44,6.78-2.95-1.69-3.06-3.71-3.06-3.59,1-3.79,3.42Zm13.23,4.59c-1,.92-3,1-4.76,1.31s-3.39,1.05-3.39,3.32,1.66,2.89,3.52,2.89c4.47,0,4.63-3.85,4.63-5.21Z"/>
              <path class="a311875f-358e-4c36-b864-8606fc24bf8b" d="M1231.73,1194.89h13.56c5.49,0,9.2,2,9.2,7.75a6.89,6.89,0,0,1-3.94,6.52c3.51,1.09,5.28,4,5.28,7.87,0,6.34-4.91,9.06-10.16,9.06h-13.94Zm6.34,12.65h6.45c2.21,0,3.88-1.1,3.88-3.72,0-3-2.11-3.58-4.36-3.58h-5.9Zm0,13.25h6.77c2.5,0,4.68-.88,4.68-4.12s-1.85-4.45-4.56-4.45h-6.88Z"/>
              <path class="a311875f-358e-4c36-b864-8606fc24bf8b" d="M1258.47,1194.89h5.73v31.24h-5.74Z"/>
              <path class="a311875f-358e-4c36-b864-8606fc24bf8b" d="M1267.23,1210.47c.32-5.82,5.12-7.57,9.83-7.57,4.16,0,9.16,1,9.16,6.43v11.8a12.43,12.43,0,0,0,.73,5h-5.81a9.6,9.6,0,0,1-.41-2.2,9.12,9.12,0,0,1-7,2.81c-3.94,0-7.09-2.15-7.09-6.78,0-5.12,3.54-6.35,7.09-6.89s6.78-.44,6.78-2.95-1.69-3.06-3.71-3.06c-2.17,0-3.59,1-3.79,3.42Zm13.23,4.59c-1,.92-3,1-4.76,1.31s-3.39,1.05-3.39,3.32,1.66,2.89,3.52,2.89c4.47,0,4.63-3.85,4.63-5.21Z"/>
              <path class="a311875f-358e-4c36-b864-8606fc24bf8b" d="M1293.82,1218.78c0,2.71,2.13,3.8,4.4,3.8,1.65,0,3.75-.7,3.75-2.89,0-1.87-2.39-2.53-6.5-3.5-3.31-.78-6.62-2-6.62-6,0-5.77,4.61-7.26,9.08-7.26s8.76,1.66,9.2,7.21h-5.45c-.16-2.4-1.85-3.06-3.94-3.06-1.29,0-3.19.27-3.19,2.11,0,2.22,3.23,2.54,6.5,3.36s6.61,2.15,6.61,6.35c0,5.9-4.75,7.87-9.51,7.87s-9.56-2-9.84-8Z"/>
              <path class="a311875f-358e-4c36-b864-8606fc24bf8b" d="M1317.06,1203.51h4.2v4.16h-4.19v11.2c0,2.09.48,2.62,2.42,2.62a8.78,8.78,0,0,0,1.77-.17v4.85a19.78,19.78,0,0,1-3.35.21c-3.51,0-6.58-.87-6.58-5.38v-13.33h-3.46v-4.16h3.46v-6.78h5.74Z"/>
              <path class="a311875f-358e-4c36-b864-8606fc24bf8b" d="M1342.83,1202.9c6.57,0,10.82,4.72,10.82,11.94s-4.24,11.9-10.82,11.9S1332,1222,1332,1214.84,1336.3,1202.9,1342.83,1202.9Zm0,19.16c3.94,0,5.09-3.63,5.09-7.22s-1.17-7.26-5.09-7.26-5,3.63-5,7.26,1.18,7.22,5,7.22Z"/>
              <path class="a311875f-358e-4c36-b864-8606fc24bf8b" d="M1357.35,1207.67h-3.42v-4.16h3.42v-1.79c0-3.93,2.31-6.89,7-6.89,1,0,2.06.14,3,.18v4.74a14.79,14.79,0,0,0-2.1-.12c-1.53,0-2.17.69-2.17,2.57v1.36H1367v4.16h-3.93v18.46h-5.74Z"/>
              <path class="a311875f-358e-4c36-b864-8606fc24bf8b" d="M1378.86,1194.89h12.43c7.46,0,13.07,5.08,13.07,15.45,0,9.05-4.28,15.74-13.07,15.74h-12.43Zm6.34,25.46h5.64c3.67,0,7.18-2.45,7.18-9.36,0-6.3-2-10.32-8.31-10.32h-4.5Z"/>
              <path class="a311875f-358e-4c36-b864-8606fc24bf8b" d="M1406.65,1210.47c.33-5.82,5.13-7.57,9.84-7.57,4.15,0,9.16,1,9.16,6.43v11.8a12.43,12.43,0,0,0,.73,5h-5.82a10.16,10.16,0,0,1-.4-2.2,9.14,9.14,0,0,1-7,2.81c-3.94,0-7.11-2.15-7.11-6.78,0-5.12,3.55-6.35,7.11-6.89s6.77-.44,6.77-2.95-1.69-3.06-3.7-3.06c-2.18,0-3.6,1-3.79,3.42Zm13.24,4.59c-1,.92-3,1-4.77,1.31s-3.38,1.05-3.38,3.32,1.65,2.89,3.51,2.89c4.48,0,4.64-3.85,4.64-5.21Z"/>
              <path class="a311875f-358e-4c36-b864-8606fc24bf8b" d="M1428.8,1203.51h5.45v4.2h.08a7.39,7.39,0,0,1,6.66-4.81,4.16,4.16,0,0,1,1.25.22v5.77a10.21,10.21,0,0,0-2.06-.21c-4.2,0-5.65,3.27-5.65,7.26v10.19h-5.73Z"/>
              <path class="a311875f-358e-4c36-b864-8606fc24bf8b" d="M1443.77,1194.89h5.73v16.73l7.22-8.14h6.78l-7.87,8.31,8.75,14.31h-6.88l-5.73-10.1-2.22,2.31v7.79h-5.73Z"/>
              <path class="a311875f-358e-4c36-b864-8606fc24bf8b" d="M1494.93,1205.39a6.36,6.36,0,0,0-6.3-5.46c-5.69,0-7.87,5.24-7.87,10.71,0,5.21,2.14,10.45,7.87,10.45,3.88,0,6-2.88,6.54-7h6.13c-.65,7.78-5.61,12.79-12.68,12.79-8.92,0-14.16-7.21-14.16-16.23,0-9.27,5.24-16.49,14.16-16.49,6.34,0,11.66,4,12.43,11.24Z"/>
              <path class="a311875f-358e-4c36-b864-8606fc24bf8b" d="M1509.65,1200h-5.73v-5.12h5.73Zm-5.73,3.5h5.73v22.63h-5.73Z"/>
              <path class="a311875f-358e-4c36-b864-8606fc24bf8b" d="M1520.18,1203.51h4.2v4.16h-4.2v11.2c0,2.09.49,2.62,2.42,2.62a8.94,8.94,0,0,0,1.78-.17v4.85a19.78,19.78,0,0,1-3.35.21c-3.51,0-6.58-.87-6.58-5.38v-13.33H1511v-4.16h3.47v-6.78h5.73Z"/>
              <path class="a311875f-358e-4c36-b864-8606fc24bf8b" d="M1525.89,1203.51h5.44v4.2h.08a7.39,7.39,0,0,1,6.66-4.81,4.06,4.06,0,0,1,1.25.22v5.77a10.14,10.14,0,0,0-2.06-.21c-4.2,0-5.64,3.27-5.64,7.26v10.19h-5.73Z"/>
              <path class="a311875f-358e-4c36-b864-8606fc24bf8b" d="M1559.88,1226.13h-5.46V1223h-.12a7.33,7.33,0,0,1-6.37,3.76c-6.1,0-7.64-3.72-7.64-9.32v-13.91H1546v12.79c0,3.72,1,5.56,3.67,5.56,3.11,0,4.44-1.88,4.44-6.47v-11.81h5.73Z"/>
              <path class="a311875f-358e-4c36-b864-8606fc24bf8b" d="M1567.42,1218.78c0,2.71,2.14,3.8,4.4,3.8,1.65,0,3.75-.7,3.75-2.89,0-1.87-2.38-2.53-6.5-3.5-3.3-.78-6.61-2-6.61-6,0-5.77,4.59-7.26,9.08-7.26s8.76,1.66,9.2,7.21h-5.45c-.16-2.4-1.86-3.06-3.94-3.06-1.29,0-3.18.27-3.18,2.11,0,2.22,3.22,2.54,6.5,3.36s6.61,2.15,6.61,6.35c0,5.9-4.76,7.87-9.52,7.87s-9.57-2-9.84-8Z"/>
              <path class="a311875f-358e-4c36-b864-8606fc24bf8b" d="M1594,1194.89h13c7.18,0,10,4.92,10,10s-2.78,10-10,10h-6.66v11.2H1594Zm6.34,14.7h4.92c3,0,5.56-.7,5.56-4.68s-2.62-4.67-5.56-4.67h-4.92Z"/>
              <path class="a311875f-358e-4c36-b864-8606fc24bf8b" d="M1638.59,1226.13h-5.46V1223H1633a7.34,7.34,0,0,1-6.38,3.76c-6.09,0-7.62-3.72-7.62-9.32v-13.91h5.72v12.79c0,3.72,1,5.56,3.67,5.56,3.11,0,4.45-1.88,4.45-6.47v-11.81h5.73Z"/>
              <path class="a311875f-358e-4c36-b864-8606fc24bf8b" d="M1641.69,1203.51h5.45v3.15h.11a7.32,7.32,0,0,1,6.38-3.76c6.1,0,7.62,3.72,7.62,9.32v13.91h-5.72v-12.79c0-3.71-1-5.55-3.67-5.55-3.11,0-4.44,1.88-4.44,6.47v11.81h-5.73Z"/>
              <path class="a311875f-358e-4c36-b864-8606fc24bf8b" d="M1678.56,1211.47c-.35-2.54-1.85-3.93-4.23-3.93-3.67,0-4.92,4-4.92,7.34s1.17,7.13,4.76,7.13c2.66,0,4.19-1.84,4.56-4.6h5.56c-.73,6-4.56,9.28-10,9.28-6.3,0-10.54-4.81-10.54-11.59,0-7,3.88-12.25,10.66-12.25,4.92,0,9.44,2.8,9.84,8.57Z"/>
              <path class="a311875f-358e-4c36-b864-8606fc24bf8b" d="M1686.25,1194.89H1692v11.81h.12a7.21,7.21,0,0,1,6.1-3.76c6.09,0,7.62,3.72,7.62,9.32v13.91h-5.73v-12.79c0-3.71-1-5.55-3.67-5.55-3.11,0-4.44,1.88-4.44,6.47v11.81h-5.73Z"/>
            </g>
            <g>
              <path d="M1113.81,1279a9.85,9.85,0,0,1-9.84-9.84V1238a9.84,9.84,0,0,1,9.84-9.83h20.25a9.84,9.84,0,0,1,9.84,9.83v5.78a9.8,9.8,0,0,0-1.86,7.21v5.34a9.84,9.84,0,0,1-9.84,9.84H1130v3a9.84,9.84,0,0,1-9.83,9.84Z"/>
              <rect x="1126.16" y="1228.05" width="25.48" height="50.97" rx="9.88"/>
              <path d="M1151.24,1279.63c-9.83,0-17-7-17-16.66a18.41,18.41,0,0,1,1.14-6.4,10.15,10.15,0,0,1-.48-3.63c.56-10.11,8.46-16.89,19.68-16.89,14.05,0,19,8.78,19,16.3v11.8a9.22,9.22,0,0,0,.06,1.47,9.85,9.85,0,0,1-5.56,12.76,10.1,10.1,0,0,1-3.65.68h-5.81a9.88,9.88,0,0,1-1.71-.15A21.36,21.36,0,0,1,1151.24,1279.63Z"/>
              <path d="M1172.1,1279a9.83,9.83,0,0,1-9.41-6.89l-7.15-22.63a9.84,9.84,0,0,1,6.36-12.37,9.63,9.63,0,0,1,3.06-.47h6a9.85,9.85,0,0,0,8.85,0h5.7a9.83,9.83,0,0,1,9.88,9.79,10.14,10.14,0,0,1-.45,3l-7.07,22.62a9.82,9.82,0,0,1-9.42,6.89Z"/>
              <path d="M1196.8,1279.63c-12,0-20.66-9.15-20.66-21.77s8.68-21.81,20.66-21.81,20.66,9.17,20.66,21.81S1208.78,1279.63,1196.8,1279.63Z"/>
              <path d="M1210.09,1279a9.84,9.84,0,0,1-9.84-9.84v-22.63a9.84,9.84,0,0,1,9.84-9.84h5.44a11.1,11.1,0,0,1,1.82.17,16.43,16.43,0,0,1,4.92-.78,14,14,0,0,1,4.62.81,9.88,9.88,0,0,1,6.5,9.29v5.7a9.89,9.89,0,0,1-7.71,9.63v7.59a9.83,9.83,0,0,1-9.84,9.84Z"/>
              <path d="M1252.39,1279a9.83,9.83,0,0,0-7.35,0h-5.9a9.85,9.85,0,0,1-9.48-7.1l-6.61-22.63a9.84,9.84,0,0,1,6.62-12.24,9.56,9.56,0,0,1,2.86-.41h6.09a9.91,9.91,0,0,0,7.38,0h5.56a9.86,9.86,0,0,0,7.47,0h5.9a9.91,9.91,0,0,1,9.49,12.63l-6.58,22.63a9.85,9.85,0,0,1-9.49,7.11Z"/>
              <path d="M1266.22,1279a9.84,9.84,0,0,1-9.83-9.84v-22.63a10.28,10.28,0,0,0,0-3.5v-5.12a9.83,9.83,0,0,1,9.83-9.83H1272a9.84,9.84,0,0,1,9.84,9.83v5.12a9.8,9.8,0,0,0,0,3.5v22.63A9.85,9.85,0,0,1,1272,1279Z"/>
              <path d="M1283.33,1279.28c-12.15,0-16.45-8.22-16.45-15.25v-5.83a9.86,9.86,0,0,1-3.47-7.51v-4.16a28,28,0,0,1,13.34-16.65h5.74a30.1,30.1,0,0,1,14.06,16.65v4.16a9.8,9.8,0,0,1-2.74,6.82,9.86,9.86,0,0,1,2.74,6.82v4.86a9.83,9.83,0,0,1-8.11,9.71A28.23,28.23,0,0,1,1283.33,1279.28Z"/>
              <path d="M1302,1279a9.86,9.86,0,0,0-8.1,0h-5.74a9.85,9.85,0,0,1-9.84-9.84V1238a9.84,9.84,0,0,1,9.84-9.83h5.74a9.84,9.84,0,0,1,9.75,8.31c5.53,1,14,4.75,14,18.88v13.9a9.85,9.85,0,0,1-9.84,9.84Z"/>
              <path d="M1330.93,1279.63c-12,0-20.66-9.15-20.66-21.77s8.68-21.81,20.66-21.81,20.66,9.17,20.66,21.81S1342.9,1279.63,1330.93,1279.63Z"/>
              <path d="M1352.32,1279.28c-12.15,0-16.45-8.22-16.45-15.25v-5.83a9.84,9.84,0,0,1-3.48-7.51v-4.16a28.23,28.23,0,0,1,13.35-16.65h5.73a30.16,30.16,0,0,1,14.07,16.65v4.16a9.81,9.81,0,0,1-2.75,6.82,9.83,9.83,0,0,1,2.75,6.82v4.86a9.84,9.84,0,0,1-8.12,9.71A28.06,28.06,0,0,1,1352.32,1279.28Z"/>
              <path d="M1371,1279a9.89,9.89,0,0,0-8.11,0h-5.72a9.84,9.84,0,0,1-9.84-9.84V1238a9.83,9.83,0,0,1,9.84-9.83h5.72a9.82,9.82,0,0,1,9.75,8.31c5.54,1,14,4.75,14,18.88v13.9a9.84,9.84,0,0,1-9.84,9.84Z"/>
              <path d="M1389.47,1279.63c-11.9,0-20.53-9.15-20.53-21.77,0-12.44,8.86-21.81,20.53-21.81a19,19,0,0,1,14,5.9c4.18,4.42,6.34,11,5.91,17.92-.31,1.69-.57,3.39-.77,5.09C1405.87,1274.3,1398.87,1279.63,1389.47,1279.63Z"/>
              <path d="M1401.73,1279a9.84,9.84,0,0,1-9.83-9.84v-22.63a9.84,9.84,0,0,1,9.83-9.84h5.44a11.12,11.12,0,0,1,1.83.17,16.43,16.43,0,0,1,4.92-.78,14.05,14.05,0,0,1,4.63.81,9.88,9.88,0,0,1,6.5,9.29v5.7a9.86,9.86,0,0,1-7.73,9.63v7.59a9.84,9.84,0,0,1-9.84,9.84Z"/>
              <path d="M1444.74,1279a9.86,9.86,0,0,0-12.07,0h-5.9a9.85,9.85,0,0,1-9.84-9.84V1238a9.84,9.84,0,0,1,9.84-9.83h6.3a9.9,9.9,0,0,0,12.1,0h5.9a9.83,9.83,0,0,1,9.84,9.83v31.23a9.84,9.84,0,0,1-9.84,9.84Z"/>
              <path d="M1461,1279.63c-9.84,0-17-7-17-16.66a18.41,18.41,0,0,1,1.14-6.4,9.93,9.93,0,0,1-.48-3.63c.57-10.11,8.47-16.89,19.67-16.89,14,0,19,8.78,19,16.3v11.8a9.22,9.22,0,0,0,.06,1.47,9.84,9.84,0,0,1-5.55,12.76,10.19,10.19,0,0,1-3.66.68h-5.81a9.68,9.68,0,0,1-1.7-.15A21.34,21.34,0,0,1,1461,1279.63Z"/>
              <path d="M1484.8,1279.28c-12.14,0-16.45-8.22-16.45-15.25v-5.83a9.84,9.84,0,0,1-3.48-7.51v-4.16a28.15,28.15,0,0,1,13.36-16.65H1484a30.16,30.16,0,0,1,14.07,16.65v4.16a9.84,9.84,0,0,1-2.74,6.82,9.86,9.86,0,0,1,2.74,6.82v4.86a9.84,9.84,0,0,1-8.12,9.71A28.06,28.06,0,0,1,1484.8,1279.28Z"/>
              <path d="M1497.26,1279.63c-4.1,0-17.49-1.38-17.49-19.19v-13.91a9.83,9.83,0,0,1,9.84-9.83h5.78a9.91,9.91,0,0,0,8.12,0h5.66a9.83,9.83,0,0,1,9.83,9.83v22.63a9.84,9.84,0,0,1-9.83,9.84h-5.44a9.16,9.16,0,0,1-1.57-.13A17,17,0,0,1,1497.26,1279.63Z"/>
              <path d="M1512.31,1279a9.84,9.84,0,0,1-9.83-9.84v-22.63a9.84,9.84,0,0,1,9.83-9.84h5.45a11.2,11.2,0,0,1,1.82.17,16.37,16.37,0,0,1,4.91-.78,14.05,14.05,0,0,1,4.63.81,9.88,9.88,0,0,1,6.5,9.29v5.7a9.9,9.9,0,0,1-7.71,9.63v7.59a9.84,9.84,0,0,1-9.84,9.84Z"/>
              <path d="M1533,1279.63c-9.83,0-17-7-17-16.66a18.2,18.2,0,0,1,1.15-6.4,9.94,9.94,0,0,1-.49-3.63c.56-10.11,8.46-16.89,19.68-16.89,14.05,0,19,8.78,19,16.3v11.8a9.22,9.22,0,0,0,.06,1.47,9.85,9.85,0,0,1-5.56,12.76,10.09,10.09,0,0,1-3.64.68h-5.82a9.68,9.68,0,0,1-1.7-.15A21.36,21.36,0,0,1,1533,1279.63Z"/>
              <rect x="1538.95" y="1228.05" width="25.48" height="50.97" rx="9.88"/>
              <path d="M1568.39,1279a9.85,9.85,0,0,1-9.84-9.84V1238a9.84,9.84,0,0,1,9.84-9.83h20.25a9.84,9.84,0,0,1,9.84,9.83v5.78a9.84,9.84,0,0,0-1.86,7.21v5.34a9.84,9.84,0,0,1-9.84,9.84h-2.19v3a9.85,9.85,0,0,1-9.84,9.84Z"/>
              <rect x="1580.74" y="1228.05" width="25.48" height="50.97" rx="9.88"/>
              <path d="M1605.83,1279.63c-9.84,0-17-7-17-16.66a18.18,18.18,0,0,1,1.13-6.4,10.15,10.15,0,0,1-.48-3.63c.57-10.11,8.47-16.89,19.68-16.89,14,0,19,8.78,19,16.3v11.8a9.22,9.22,0,0,0,.06,1.47,9.84,9.84,0,0,1-5.56,12.76,10.1,10.1,0,0,1-3.65.68h-5.81a9.88,9.88,0,0,1-1.71-.15A21.34,21.34,0,0,1,1605.83,1279.63Z"/>
              <path d="M1626.68,1279a9.84,9.84,0,0,1-9.41-6.89l-7.14-22.63a9.82,9.82,0,0,1,6.35-12.37,9.63,9.63,0,0,1,3.06-.47h6a9.87,9.87,0,0,0,8.86,0h5.69a9.82,9.82,0,0,1,9.88,9.79,10.14,10.14,0,0,1-.45,3l-7.07,22.62A9.82,9.82,0,0,1,1633,1279Z"/>
              <path d="M1651.38,1279.63c-12,0-20.66-9.15-20.66-21.77s8.68-21.81,20.66-21.81,20.66,9.17,20.66,21.81S1663.36,1279.63,1651.38,1279.63Z"/>
              <path d="M1664.61,1279a9.85,9.85,0,0,1-9.84-9.84v-22.63a9.85,9.85,0,0,1,9.84-9.84h5.44a11.1,11.1,0,0,1,1.82.17,16.43,16.43,0,0,1,4.92-.78,14,14,0,0,1,4.62.81,9.89,9.89,0,0,1,6.51,9.29v5.7a9.9,9.9,0,0,1-7.72,9.63v7.59a9.83,9.83,0,0,1-9.84,9.84Z"/>
              <path d="M1687.89,1279.63c-11.35,0-19.26-7-19.68-17.43a9.94,9.94,0,0,1,1-4.8,16.18,16.18,0,0,1-.55-4.22c0-8.53,5.86-17.13,18.95-17.13,10.77,0,18.25,6.4,19.05,16.3a9.84,9.84,0,0,1-.44,3.77,16.16,16.16,0,0,1,1,5.76C1707.28,1272.33,1699.31,1279.63,1687.89,1279.63Z"/>
              <path class="a311875f-358e-4c36-b864-8606fc24bf8b" d="M1113.81,1237.92h20.25v5.77h-13.92v7.22h12.07v5.34h-12.07v12.9h-6.33Z"/>
              <path class="a311875f-358e-4c36-b864-8606fc24bf8b" d="M1136,1237.92h5.72v31.22H1136Z"/>
              <path class="a311875f-358e-4c36-b864-8606fc24bf8b" d="M1144.79,1253.49c.33-5.82,5.13-7.57,9.84-7.57,4.16,0,9.16,1,9.16,6.43v11.8a12.49,12.49,0,0,0,.73,5h-5.81a9.52,9.52,0,0,1-.4-2.18,9.18,9.18,0,0,1-7,2.8c-3.93,0-7.1-2.14-7.1-6.79,0-5.11,3.55-6.33,7.1-6.88s6.78-.45,6.78-3-1.69-3.06-3.71-3.06c-2.18,0-3.59,1-3.79,3.42Zm13.23,4.59c-1,.92-3,1-4.76,1.31s-3.38,1-3.38,3.33,1.65,2.88,3.5,2.88c4.49,0,4.64-3.85,4.64-5.2Z"/>
              <path class="a311875f-358e-4c36-b864-8606fc24bf8b" d="M1178.48,1269.14h-6.38l-7.14-22.63h6l4.4,15.44h.08l4.39-15.44h5.7Z"/>
              <path class="a311875f-358e-4c36-b864-8606fc24bf8b" d="M1196.8,1245.92c6.57,0,10.82,4.73,10.82,11.94s-4.24,11.9-10.82,11.9S1186,1265,1186,1257.86,1190.25,1245.92,1196.8,1245.92Zm0,19.16c3.93,0,5.07-3.63,5.07-7.22s-1.16-7.26-5.07-7.26-5,3.63-5,7.26S1192.92,1265.08,1196.8,1265.08Z"/>
              <path class="a311875f-358e-4c36-b864-8606fc24bf8b" d="M1210.09,1246.53h5.44v4.2h.08a7.39,7.39,0,0,1,6.66-4.81,3.87,3.87,0,0,1,1.25.22v5.76a9,9,0,0,0-2.06-.22c-4.19,0-5.65,3.27-5.65,7.25v10.19h-5.72Z"/>
              <path class="a311875f-358e-4c36-b864-8606fc24bf8b" d="M1258.29,1269.14h-5.9l-3.72-15.17h-.08l-3.55,15.17h-5.9l-6.61-22.63h6.09l3.82,15.35h.09l3.47-15.35h5.56l3.56,15.31h.07l3.84-15.31h5.9Z"/>
              <path class="a311875f-358e-4c36-b864-8606fc24bf8b" d="M1272,1243h-5.73v-5.11H1272Zm-5.73,3.5H1272v22.63h-5.73Z"/>
              <path class="a311875f-358e-4c36-b864-8606fc24bf8b" d="M1282.49,1246.53h4.19v4.16h-4.19v11.19c0,2.11.48,2.63,2.42,2.63a7.55,7.55,0,0,0,1.77-.18v4.86a19.78,19.78,0,0,1-3.35.22c-3.51,0-6.58-.88-6.58-5.38v-13.34h-3.47v-4.16h3.47v-6.78h5.74Z"/>
              <path class="a311875f-358e-4c36-b864-8606fc24bf8b" d="M1288.16,1237.92h5.74v11.8h.12a7.22,7.22,0,0,1,6.09-3.76c6.1,0,7.63,3.71,7.63,9.32v13.9H1302v-12.79c0-3.72-1-5.56-3.67-5.56-3.1,0-4.43,1.89-4.43,6.49v11.8h-5.74Z"/>
              <path class="a311875f-358e-4c36-b864-8606fc24bf8b" d="M1330.93,1245.92c6.58,0,10.82,4.73,10.82,11.94s-4.24,11.9-10.82,11.9-10.77-4.73-10.77-11.9S1324.4,1245.92,1330.93,1245.92Zm0,19.16c3.93,0,5.08-3.63,5.08-7.22s-1.17-7.26-5.08-7.26-5,3.63-5,7.26S1327.06,1265.08,1330.93,1265.08Z"/>
              <path class="a311875f-358e-4c36-b864-8606fc24bf8b" d="M1351.47,1246.53h4.22v4.16h-4.19v11.19c0,2.11.48,2.63,2.42,2.63a7.49,7.49,0,0,0,1.77-.18v4.86a19.67,19.67,0,0,1-3.34.22c-3.52,0-6.59-.88-6.59-5.38v-13.34h-3.47v-4.16h3.47v-6.78h5.74Z"/>
              <path class="a311875f-358e-4c36-b864-8606fc24bf8b" d="M1357.16,1237.92h5.72v11.8h.12a7.26,7.26,0,0,1,6.1-3.76c6.09,0,7.63,3.71,7.63,9.32v13.9H1371v-12.79c0-3.72-1-5.56-3.67-5.56-3.11,0-4.44,1.89-4.44,6.49v11.8h-5.72Z"/>
              <path class="a311875f-358e-4c36-b864-8606fc24bf8b" d="M1384.55,1259.34c.15,3.94,2,5.74,5.12,5.74a4.72,4.72,0,0,0,4.52-2.95h5c-1.61,5.33-5,7.61-9.76,7.61-6.58,0-10.65-4.92-10.65-11.9,0-6.78,4.31-11.94,10.65-11.94,7.1,0,10.53,6.48,10.13,13.42Zm9.31-3.93c-.52-3.15-1.77-4.81-4.55-4.81-3.63,0-4.68,3.07-4.76,4.81Z"/>
              <path class="a311875f-358e-4c36-b864-8606fc24bf8b" d="M1401.73,1246.53h5.44v4.2h.09a7.39,7.39,0,0,1,6.65-4.81,3.78,3.78,0,0,1,1.25.22v5.76a8.82,8.82,0,0,0-2.05-.22c-4.19,0-5.65,3.27-5.65,7.25v10.19h-5.73Z"/>
              <path class="a311875f-358e-4c36-b864-8606fc24bf8b" d="M1426.74,1237.92h6.3l12,20.95h.08v-20.95h5.9v31.22h-6.33l-12-20.9h-.07v20.9h-5.91Z"/>
              <path class="a311875f-358e-4c36-b864-8606fc24bf8b" d="M1454.54,1253.49c.32-5.82,5.12-7.57,9.84-7.57,4.16,0,9.16,1,9.16,6.43v11.8a12.49,12.49,0,0,0,.73,5h-5.81a10.75,10.75,0,0,1-.41-2.18,9.14,9.14,0,0,1-7,2.8c-3.94,0-7.11-2.14-7.11-6.79,0-5.11,3.56-6.33,7.11-6.88s6.78-.45,6.78-3-1.7-3.06-3.72-3.06c-2.18,0-3.59,1-3.79,3.42Zm13.24,4.59c-1,.92-3,1-4.76,1.31s-3.4,1-3.4,3.33,1.66,2.88,3.51,2.88c4.48,0,4.65-3.85,4.65-5.2Z"/>
              <path class="a311875f-358e-4c36-b864-8606fc24bf8b" d="M1484,1246.53h4.2v4.16H1484v11.19c0,2.11.48,2.63,2.42,2.63a7.58,7.58,0,0,0,1.78-.18v4.86a19.78,19.78,0,0,1-3.35.22c-3.51,0-6.57-.88-6.57-5.38v-13.34h-3.5v-4.16h3.48v-6.78h5.72Z"/>
              <path class="a311875f-358e-4c36-b864-8606fc24bf8b" d="M1509.17,1269.14h-5.44V1266h-.13a7.33,7.33,0,0,1-6.38,3.77c-6.09,0-7.62-3.72-7.62-9.32v-13.91h5.79v12.79c0,3.72,1,5.56,3.68,5.56,3.11,0,4.44-1.89,4.44-6.47V1246.6h5.66Z"/>
              <path class="a311875f-358e-4c36-b864-8606fc24bf8b" d="M1512.31,1246.53h5.45v4.2h.08a7.39,7.39,0,0,1,6.65-4.81,3.78,3.78,0,0,1,1.25.22v5.76a8.82,8.82,0,0,0-2-.22c-4.19,0-5.65,3.27-5.65,7.25v10.19h-5.73Z"/>
              <path class="a311875f-358e-4c36-b864-8606fc24bf8b" d="M1526.51,1253.49c.33-5.82,5.13-7.57,9.84-7.57,4.15,0,9.16,1,9.16,6.43v11.8c0,2.06.2,4.12.73,5h-5.82a9.52,9.52,0,0,1-.4-2.18,9.18,9.18,0,0,1-7,2.8c-3.93,0-7.09-2.14-7.09-6.79,0-5.11,3.54-6.33,7.09-6.88s6.78-.45,6.78-3-1.69-3.06-3.71-3.06c-2.18,0-3.59,1-3.78,3.42Zm13.23,4.59c-1,.92-3,1-4.76,1.31s-3.38,1-3.38,3.33,1.65,2.88,3.51,2.88c4.48,0,4.63-3.85,4.63-5.2Z"/>
              <path class="a311875f-358e-4c36-b864-8606fc24bf8b" d="M1548.82,1237.92h5.73v31.22h-5.73Z"/>
              <path class="a311875f-358e-4c36-b864-8606fc24bf8b" d="M1568.39,1237.92h20.25v5.77h-13.92v7.22h12.07v5.34h-12.07v12.9h-6.33Z"/>
              <path class="a311875f-358e-4c36-b864-8606fc24bf8b" d="M1590.62,1237.92h5.72v31.22h-5.72Z"/>
              <path class="a311875f-358e-4c36-b864-8606fc24bf8b" d="M1599.37,1253.49c.33-5.82,5.13-7.57,9.84-7.57,4.16,0,9.16,1,9.16,6.43v11.8a12.49,12.49,0,0,0,.73,5h-5.81a9.52,9.52,0,0,1-.4-2.18,9.17,9.17,0,0,1-7,2.8c-3.94,0-7.11-2.14-7.11-6.79,0-5.11,3.55-6.33,7.11-6.88s6.77-.45,6.77-3-1.69-3.06-3.71-3.06c-2.18,0-3.59,1-3.79,3.42Zm13.23,4.59c-1,.92-2.95,1-4.76,1.31s-3.38,1-3.38,3.33,1.65,2.88,3.5,2.88c4.49,0,4.64-3.85,4.64-5.2Z"/>
              <path class="a311875f-358e-4c36-b864-8606fc24bf8b" d="M1633.06,1269.14h-6.38l-7.14-22.63h6L1630,1262h.08l4.4-15.44h5.69Z"/>
              <path class="a311875f-358e-4c36-b864-8606fc24bf8b" d="M1651.38,1245.92c6.57,0,10.82,4.73,10.82,11.94s-4.24,11.9-10.82,11.9-10.83-4.73-10.83-11.9S1644.83,1245.92,1651.38,1245.92Zm0,19.16c3.93,0,5.07-3.63,5.07-7.22s-1.16-7.26-5.07-7.26-5.05,3.63-5.05,7.26S1647.5,1265.08,1651.38,1265.08Z"/>
              <path class="a311875f-358e-4c36-b864-8606fc24bf8b" d="M1664.61,1246.53h5.44v4.2h.09a7.38,7.38,0,0,1,6.65-4.81,3.83,3.83,0,0,1,1.25.22v5.76a9,9,0,0,0-2.06-.22c-4.19,0-5.65,3.27-5.65,7.25v10.19h-5.72Z"/>
              <path class="a311875f-358e-4c36-b864-8606fc24bf8b" d="M1683.53,1261.79c0,2.72,2.13,3.81,4.4,3.81,1.65,0,3.74-.7,3.74-2.88,0-1.88-2.38-2.54-6.49-3.51-3.31-.78-6.62-2-6.62-6,0-5.77,4.6-7.26,9.08-7.26s8.76,1.67,9.2,7.21h-5.44c-.17-2.4-1.86-3.05-3.94-3.05-1.3,0-3.18.26-3.18,2.09,0,2.23,3.22,2.54,6.49,3.38s6.62,2.14,6.62,6.33c0,5.9-4.76,7.87-9.52,7.87s-9.57-2-9.84-8Z"/>
            </g>
          </g>
        </g>
      </g>
    </g>
  </g>
</svg>
